<?xml version="1.0" encoding="UTF-8"?>
<svg width="24px" height="24px" viewBox="0 0 24 24" version="1.1" xmlns="http://www.w3.org/2000/svg" xmlns:xlink="http://www.w3.org/1999/xlink">
    <!-- Generator: Sketch 41.2 (35397) - http://www.bohemiancoding.com/sketch -->
    <title>noun_81441_cc</title>
    <desc>Created with Sketch.</desc>
    <defs></defs>
    <g id="_Callback" stroke="none" stroke-width="1" fill="none" fill-rule="evenodd">
        <g id="noun_81441_cc" fill="#000000">
            <g id="Group">
                <path d="M12,0 C5.37272727,0 0,5.37272727 0,12 C0,18.6272727 5.37272727,24 12,24 C18.6272727,24 24,18.6272727 24,12 C24,5.37272727 18.6272727,0 12,0 Z M12,23.1818182 C5.83636364,23.1818182 0.818181818,18.1636364 0.818181818,12 C0.818181818,5.83636364 5.83636364,0.818181818 12,0.818181818 C18.1636364,0.818181818 23.1818182,5.83636364 23.1818182,12 C23.1818182,18.1636364 18.1636364,23.1818182 12,23.1818182 Z" id="Shape"></path>
                <path d="M20.2363636,11.7 L16.1454545,7.60909091 C15.9818182,7.44545455 15.7363636,7.44545455 15.5727273,7.60909091 C15.4090909,7.77272727 15.4090909,8.01818182 15.5727273,8.18181818 L18.9545455,11.5636364 L4.06363636,11.5636364 C3.84545455,11.5636364 3.65454545,11.7545455 3.65454545,11.9727273 C3.65454545,12.1909091 3.84545455,12.3818182 4.06363636,12.3818182 L18.9818182,12.3818182 L15.5727273,15.7909091 C15.4090909,15.9545455 15.4090909,16.2 15.5727273,16.3636364 C15.6545455,16.4454545 15.7636364,16.4727273 15.8727273,16.4727273 C15.9818182,16.4727273 16.0909091,16.4454545 16.1727273,16.3636364 L20.2636364,12.2727273 C20.2909091,12.2454545 20.3454545,12.1909091 20.3454545,12.1363636 L20.3454545,12.1363636 C20.3727273,12.0818182 20.3727273,12.0272727 20.3727273,12 C20.3727273,11.9727273 20.3727273,11.8909091 20.3454545,11.8636364 L20.3454545,11.8636364 C20.3181818,11.7818182 20.2636364,11.7545455 20.2363636,11.7 Z" id="Shape"></path>
            </g>
        </g>
    </g>
</svg>