<?xml version="1.0" encoding="UTF-8"?>
<svg width="32px" height="33px" viewBox="0 0 32 33" version="1.1" xmlns="http://www.w3.org/2000/svg" xmlns:xlink="http://www.w3.org/1999/xlink">
    <!-- Generator: Sketch 41.2 (35397) - http://www.bohemiancoding.com/sketch -->
    <title>noun_603541_cc</title>
    <desc>Created with Sketch.</desc>
    <defs></defs>
    <g id="_Callback" stroke="none" stroke-width="1" fill="none" fill-rule="evenodd">
        <g id="noun_603541_cc" fill="#0062CD">
            <g id="Group">
                <g transform="translate(0.000000, 0.226780)" id="Shape">
                    <path d="M16,0.128775111 C7.17607858,0.128775111 0,7.30484622 0,16.1287751 C0,24.952704 7.17607858,32.1287751 16,32.1287751 C24.8239214,32.1287751 32,24.952704 32,16.1287751 C32,7.30484622 24.8239214,0.128775111 16,0.128775111 Z M16,2.26210844 C23.6709828,2.26210844 29.8666667,8.45778489 29.8666667,16.1287751 C29.8666667,23.799744 23.6709828,29.9954418 16,29.9954418 C8.32901724,29.9954418 2.13333333,23.799744 2.13333333,16.1287751 C2.13333333,8.45778489 8.32901724,2.26210844 16,2.26210844 Z M23.7888889,9.36210844 C23.5102753,9.37311116 23.2470433,9.49276206 23.0555556,9.69544178 L12.7888889,20.2954418 L8.93333333,16.4398862 C8.67194723,16.1405394 8.26583265,16.0113032 7.87951791,16.1045348 C7.49320318,16.1977664 7.19073708,16.4980084 7.09465705,16.8836246 C6.99857703,17.2692408 7.1248126,17.6762981 7.42222222,17.9398862 L12.0444444,22.5621084 C12.2465162,22.7648961 12.5216146,22.8779554 12.8078863,22.8758658 C13.094158,22.8737762 13.3675767,22.7567132 13.5666667,22.5509973 L24.5888889,11.1732196 C24.8931579,10.8613493 24.9771835,10.3957835 24.8011331,9.99722485 C24.6250826,9.59866622 24.2243442,9.34722932 23.7888889,9.36210844 L23.7888889,9.36210844 Z"></path>
                </g>
            </g>
        </g>
    </g>
</svg>