<?xml version="1.0" encoding="UTF-8"?>
<svg width="16px" height="16px" viewBox="0 0 16 16" version="1.1" xmlns="http://www.w3.org/2000/svg" xmlns:xlink="http://www.w3.org/1999/xlink">
    <!-- Generator: Sketch 39.1 (31720) - http://www.bohemiancoding.com/sketch -->
    <title>Page 1</title>
    <desc>Created with Sketch.</desc>
    <defs></defs>
    <g id="_Обратный-звонок" stroke="none" stroke-width="1" fill="none" fill-rule="evenodd">
        <g id="Desktop-HD" transform="translate(-233.000000, -296.000000)" fill="#8A8A8A">
            <g id="Page-1" transform="translate(233.000000, 296.000000)">
                <path d="M9.838,2.62933333 C8.69933333,2.62933333 7.10666667,4.288 6.134,6.48933333 C4.898,9.28533333 5.112,11.6266667 6.08666667,12.058 L7.08266667,12.4986667 C7.45666667,12.664 7.916,12.4833333 8.07933333,12.1126667 L8.372,11.4486667 C8.54,11.068 8.36733333,10.6213333 7.98533333,10.4513333 L6.99,10.012 C6.594,9.83733333 6.38,9.37533333 6.388,8.71133333 C6.39466667,8.144 6.55866667,7.46933333 6.85066667,6.80866667 C7.318,5.75133333 8.156,4.684 8.974,4.684 C9.09466667,4.684 9.20933333,4.708 9.31466667,4.75466667 L10.31,5.19466667 C10.6846667,5.36133333 11.1433333,5.17933333 11.3066667,4.80866667 L11.6,4.14333333 C11.682,3.95866667 11.6873333,3.75333333 11.614,3.56533333 C11.5426667,3.37666667 11.4006667,3.22866667 11.2146667,3.14733333 L10.2186667,2.70733333 C10.104,2.65466667 9.97533333,2.62933333 9.838,2.62933333 L9.838,2.62933333 Z M7.388,13.2306667 C7.19,13.2306667 6.99666667,13.1886667 6.814,13.1086667 L5.818,12.668 C4.344,12.0153333 4.21533333,9.18333333 5.52466667,6.22 C6.63266667,3.71333333 8.406,1.96266667 9.83866667,1.96266667 C10.0693333,1.96266667 10.2893333,2.006 10.49,2.09533333 L11.486,2.536 C11.8333333,2.68933333 12.1006667,2.96933333 12.2373333,3.32333333 C12.3753333,3.678 12.3653333,4.064 12.2126667,4.41266667 L11.92,5.07733333 C11.612,5.774 10.7453333,6.112 10.0446667,5.804 L9.04866667,5.364 C8.79466667,5.25066667 8.03133333,5.79466667 7.46533333,7.07666667 C7.21266667,7.648 7.064,8.24666667 7.05933333,8.718 C7.05466667,9.126 7.15866667,9.35533333 7.264,9.40066667 L8.26,9.84 C8.97733333,10.1593333 9.30266667,10.9993333 8.986,11.716 L8.69333333,12.3793333 C8.462,12.8973333 7.95133333,13.2306667 7.388,13.2306667 L7.388,13.2306667 Z" id="Fill-1"></path>
                <path d="M7.99933333,16 C6.72133333,16 5.936,15.7206667 5.59866667,15.1473333 C5.13066667,14.3493333 5.70466667,13.3233333 6.12333333,12.5733333 L6.184,12.4653333 C6.27333333,12.3046667 6.476,12.2453333 6.63733333,12.3366667 C6.79866667,12.4266667 6.85666667,12.6286667 6.76666667,12.79 L6.70533333,12.9006667 C6.38466667,13.4746667 5.89933333,14.3433333 6.174,14.8113333 C6.37533333,15.1526667 7.00666667,15.3333333 7.99933333,15.3333333 C12.0426667,15.3333333 15.3326667,12.0426667 15.3326667,8 C15.3326667,3.95733333 12.0426667,0.666666667 7.99933333,0.666666667 C3.956,0.666666667 0.666,3.95733333 0.666,8 C0.666,10.1113333 1.57666667,12.1226667 3.16533333,13.514 C3.304,13.6366667 3.31733333,13.846 3.196,13.9853333 C3.074,14.1233333 2.86333333,14.1373333 2.72533333,14.0153333 C0.993333333,12.4953333 0,10.3026667 0,8 C0,3.58933333 3.58866667,0 8,0 C12.4113333,0 16,3.58933333 16,8 C15.9993333,12.4113333 12.4106667,16 7.99933333,16" id="Fill-3"></path>
            </g>
        </g>
    </g>
</svg>