<?xml version="1.0" encoding="UTF-8"?>
<svg width="44px" height="44px" viewBox="0 0 44 44" version="1.1" xmlns="http://www.w3.org/2000/svg" xmlns:xlink="http://www.w3.org/1999/xlink">
    <!-- Generator: Sketch 41.2 (35397) - http://www.bohemiancoding.com/sketch -->
    <title>Page 1</title>
    <desc>Created with Sketch.</desc>
    <defs></defs>
    <g id="7.1.-Акция" stroke="none" stroke-width="1" fill="none" fill-rule="evenodd">
        <g id="Акция-[Desktop-960]" transform="translate(-318.000000, -347.000000)" stroke="#FFFFFF" stroke-width="2">
            <g id="Page-1" transform="translate(319.000000, 348.000000)">
                <path d="M42,21 C42,32.598 32.598,42 21,42 C9.402,42 0,32.598 0,21 C0,9.402 9.402,0 21,0 C32.598,0 42,9.402 42,21 Z" id="Stroke-1"></path>
                <path d="M16,33 L16,30 L19,29 L19,20 L16,19 L16,16 L24,16 L24,29 C25.337,29.445 27,30 27,30 L27,33 L16,33 Z" id="Stroke-3"></path>
                <path d="M18,10 C18,11.657 19.344,13 21,13 C22.657,13 24,11.657 24,10 C24,8.344 22.657,7 21,7 C19.344,7 18,8.344 18,10 Z" id="Stroke-5"></path>
            </g>
        </g>
    </g>
</svg>