<svg width="46" height="48" viewBox="0 0 46 48" xmlns="http://www.w3.org/2000/svg"><title>Page 1</title><g stroke="#505050" stroke-width="2" fill="none" fill-rule="evenodd"><path d="M16 39.414c.383-.383.775-1 2-1h14c1.111 0 7.223-6.129 8-7 .747-.838 4.077-5.84 5-8-.58-.78-2.147-1.43-4-1-1.768.41-2.808 1.681-4 4l-4.584 2.38" stroke-linejoin="round"/><path d="M22 32.414h8c4 0 4-5 0-5h-5.283c-.834 0-2.396-2-3.717-2h-5c-1.352 0-3.03 1.097-4 2l-4 4" stroke-linejoin="round"/><path stroke-linejoin="round" d="M13 46.414l5-5-12-12-5 5zm-7-12l2 2"/><path d="M37 11.414v14m-20 0v-14m24 4l-14-14-14 14m7-12v5m4 19v-10h6v10"/></g></svg>