<svg width="48" height="48" viewBox="0 0 48 48" xmlns="http://www.w3.org/2000/svg"><title>Page 1</title><g stroke="#FFF" stroke-width="2" fill="none" fill-rule="evenodd"><path d="M31.414 47h4.477l3.523-4.122v-17.01c5-1.242 7-5.295 7-9.868 0-5.576-4.424-10-10-10s-10 4.424-10 10c0 3.734 1.625 7.125 5 8.93v6.104l2 1.58v1.581l-2 2.262v1.373l2 1.898v1.581l-2 1.581V47z"/><path d="M36.414 16a3 3 0 1 1 0-6 3 3 0 0 1 0 6z"/><path d="M24.517 13.001A7 7 0 1 1 36.414 8v2m-16-2h-6l-13 13 12 12 11-11"/></g></svg>