<svg width="37" height="33" viewBox="0 0 37 33" xmlns="http://www.w3.org/2000/svg"><title>Page 1</title><g stroke="#FFF" stroke-width="1.44" fill="none" fill-rule="evenodd"><path d="M31.043 18.942l2.217-2.214c3.82-3.814 1.931-8.97-1.146-12.278C31.1 3.359 29.94 2.414 28.74 1.74c-1.563-.875-6.465-2.158-9.67.962L12.418 9.32c-1.795 1.786 2.736 3.516 5.03 1.255l1.675-1.652c2.476-2.245 5.587 2.254 9.464-.805" stroke-linecap="round" stroke-linejoin="round"/><path d="M5.15 17.895l-2.213-2.21C-4.44 8.32 8.336-4.325 15.822 2.962l1.49 1.484m5.352 6.082l8.565 8.979c1.749 1.834-.847 5.324-3.091 3.009l-4.015-4.14" stroke-linecap="round" stroke-linejoin="round"/><path d="M20.624 21.166l4.413 4.534c1.767 1.816 5.345-.868 3.1-3.184l-4.313-4.452m-4.542 8.113l2.205 2.223c1.784 1.798 5.248-.769 3.023-3.106" stroke-linecap="round" stroke-linejoin="round"/><path d="M10.404 16.073l.235.235a2.059 2.059 0 0 1 0 2.898l-3.05 3.052a2.06 2.06 0 0 1-2.898 0l-.235-.236a2.057 2.057 0 0 1-.001-2.897l3.051-3.052a2.056 2.056 0 0 1 2.898 0zm5.131 1.397l.236.234a2.057 2.057 0 0 1 0 2.898l-4.86 4.86a2.06 2.06 0 0 1-2.897 0l-.236-.236a2.058 2.058 0 0 1 0-2.898l4.86-4.859a2.053 2.053 0 0 1 2.897 0zm1.987 4.54l.235.234a2.057 2.057 0 0 1 0 2.9l-3.331 3.33a2.057 2.057 0 0 1-2.898 0l-.235-.236a2.055 2.055 0 0 1 0-2.897l3.33-3.332a2.055 2.055 0 0 1 2.899 0zm2.141 4.331l.236.235a2.06 2.06 0 0 1 0 2.9l-2.046 2.044a2.06 2.06 0 0 1-2.898 0l-.235-.236a2.057 2.057 0 0 1 0-2.897l2.045-2.046a2.056 2.056 0 0 1 2.898 0z"/></g></svg>