<?xml version="1.0" encoding="UTF-8"?>
<svg width="46px" height="48px" viewBox="0 0 46 48" version="1.1" xmlns="http://www.w3.org/2000/svg" xmlns:xlink="http://www.w3.org/1999/xlink">
    <!-- Generator: Sketch 41.2 (35397) - http://www.bohemiancoding.com/sketch -->
    <title>Page 1</title>
    <desc>Created with Sketch.</desc>
    <defs></defs>
    <g id="2.-О-компании" stroke="none" stroke-width="1" fill="none" fill-rule="evenodd">
        <g id="О-компании-[Desktop-1600]" transform="translate(-219.000000, -1423.000000)" stroke="#505050" stroke-width="2">
            <g id="Page-1" transform="translate(220.000000, 1424.000000)">
                <path d="M15,38.4142 C15.383,38.0312 15.775,37.4142 17,37.4142 L31,37.4142 C32.111,37.4142 38.223,31.2852 39,30.4142 C39.747,29.5762 43.077,24.5732 44,22.4142 C43.42,21.6332 41.853,20.9832 40,21.4142 C38.232,21.8242 37.192,23.0952 36,25.4142 L31.416,27.7942" id="Stroke-1" stroke-linejoin="round"></path>
                <path d="M21,31.4142 L29,31.4142 C33,31.4142 33,26.4142 29,26.4142 L23.717,26.4142 C22.883,26.4142 21.321,24.4142 20,24.4142 L15,24.4142 C13.648,24.4142 11.97,25.5112 11,26.4142 L7,30.4142" id="Stroke-3" stroke-linejoin="round"></path>
                <polygon id="Stroke-5" stroke-linejoin="round" points="12 45.4142 17 40.4142 5 28.4142 0 33.4142"></polygon>
                <path d="M5,33.4142 L7,35.4142" id="Stroke-7" stroke-linejoin="round"></path>
                <path d="M36,10.4142 L36,24.4142" id="Stroke-9"></path>
                <path d="M16,24.4142 L16,10.4142" id="Stroke-11"></path>
                <polyline id="Stroke-13" points="40 14.4142 26 0.4142 12 14.4142"></polyline>
                <path d="M19,2.4142 L19,7.4142" id="Stroke-15"></path>
                <polyline id="Stroke-17" points="23 26.4142 23 16.4142 29 16.4142 29 26.4142"></polyline>
            </g>
        </g>
    </g>
</svg>