<?xml version="1.0" encoding="UTF-8"?>
<svg width="37px" height="33px" viewBox="0 0 37 33" version="1.1" xmlns="http://www.w3.org/2000/svg" xmlns:xlink="http://www.w3.org/1999/xlink">
    <!-- Generator: Sketch 41.2 (35397) - http://www.bohemiancoding.com/sketch -->
    <title>Page 1</title>
    <desc>Created with Sketch.</desc>
    <defs></defs>
    <g id="2.-О-компании" stroke="none" stroke-width="1" fill="none" fill-rule="evenodd">
        <g id="О-компании-[Desktop-1600]" transform="translate(-623.000000, -1437.000000)" stroke="#FFFFFF" stroke-width="1.44">
            <g id="Page-1" transform="translate(623.000000, 1437.000000)">
                <path d="M31.0431,18.9418 L33.2601,16.7278 C37.0801,12.9138 35.1911,7.7578 32.1141,4.4498 C31.0991,3.3588 29.9401,2.4138 28.7401,1.7408 C27.1771,0.8648 22.2751,-0.4182 19.0701,2.7018 L12.4181,9.3208 C10.6231,11.1068 15.1541,12.8368 17.4471,10.5758 L19.1231,8.9238 C21.5991,6.6788 24.7101,11.1778 28.5871,8.1188" id="Stroke-1" stroke-linecap="round" stroke-linejoin="round"></path>
                <path d="M5.1496,17.8949 L2.9366,15.6849 C-4.4394,8.3199 8.3356,-4.3251 15.8216,2.9619 L17.3126,4.4459" id="Stroke-3" stroke-linecap="round" stroke-linejoin="round"></path>
                <path d="M22.6637,10.5277 L31.2287,19.5067 C32.9777,21.3407 30.3817,24.8307 28.1377,22.5157 L24.1227,18.3767" id="Stroke-5" stroke-linecap="round" stroke-linejoin="round"></path>
                <path d="M20.6237,21.1664 L25.0367,25.7004 C26.8037,27.5164 30.3817,24.8324 28.1377,22.5164 L23.8237,18.0644" id="Stroke-7" stroke-linecap="round" stroke-linejoin="round"></path>
                <path d="M19.2824,26.1771 L21.4874,28.4001 C23.2714,30.1981 26.7354,27.6311 24.5104,25.2941" id="Stroke-9" stroke-linecap="round" stroke-linejoin="round"></path>
                <path d="M10.404,16.0726 L10.639,16.3076 C11.435,17.1026 11.433,18.4116 10.639,19.2056 L7.589,22.2576 C6.795,23.0516 5.487,23.0526 4.691,22.2576 L4.456,22.0216 C3.661,21.2266 3.659,19.9216 4.455,19.1246 L7.506,16.0726 C8.303,15.2756 9.609,15.2766 10.404,16.0726 Z" id="Stroke-11"></path>
                <path d="M15.5353,17.4691 L15.7713,17.7041 C16.5683,18.5011 16.5653,19.8081 15.7703,20.6021 L10.9113,25.4611 C10.1173,26.2551 8.8083,26.2551 8.0143,25.4611 L7.7783,25.2261 C6.9843,24.4311 6.9813,23.1251 7.7783,22.3281 L12.6383,17.4691 C13.4343,16.6721 14.7393,16.6711 15.5353,17.4691 Z" id="Stroke-13"></path>
                <path d="M17.5216,22.0092 L17.7566,22.2442 C18.5536,23.0412 18.5526,24.3472 17.7566,25.1432 L14.4256,28.4742 C13.6296,29.2702 12.3236,29.2702 11.5276,28.4742 L11.2926,28.2382 C10.4966,27.4432 10.4956,26.1382 11.2926,25.3412 L14.6236,22.0092 C15.4206,21.2122 16.7246,21.2122 17.5216,22.0092 Z" id="Stroke-15"></path>
                <path d="M19.6632,26.3412 L19.8992,26.5762 C20.6952,27.3732 20.6922,28.6812 19.8992,29.4752 L17.8532,31.5202 C17.0592,32.3142 15.7502,32.3152 14.9552,31.5202 L14.7202,31.2842 C13.9262,30.4902 13.9232,29.1842 14.7202,28.3872 L16.7652,26.3412 C17.5622,25.5442 18.8672,25.5452 19.6632,26.3412 Z" id="Stroke-17"></path>
            </g>
        </g>
    </g>
</svg>