<?xml version="1.0" encoding="UTF-8"?>
<svg width="48px" height="48px" viewBox="0 0 48 48" version="1.1" xmlns="http://www.w3.org/2000/svg" xmlns:xlink="http://www.w3.org/1999/xlink">
    <!-- Generator: Sketch 41.2 (35397) - http://www.bohemiancoding.com/sketch -->
    <title>Page 1</title>
    <desc>Created with Sketch.</desc>
    <defs></defs>
    <g id="2.-О-компании" stroke="none" stroke-width="1" fill="none" fill-rule="evenodd">
        <g id="О-компании-[Desktop-1600]" transform="translate(-1436.000000, -1428.000000)" stroke="#FFFFFF" stroke-width="2">
            <g id="Page-1" transform="translate(1437.000000, 1429.000000)">
                <path d="M30.4142,46 L34.8912,46 L38.4142,41.878 L38.4142,24.868 C43.4142,23.626 45.4142,19.573 45.4142,15 C45.4142,9.424 40.9902,5 35.4142,5 C29.8382,5 25.4142,9.424 25.4142,15 C25.4142,18.734 27.0392,22.125 30.4142,23.93 L30.4142,30.034 L32.4142,31.614 L32.4142,33.195 L30.4142,35.457 L30.4142,36.83 L32.4142,38.728 L32.4142,40.309 L30.4142,41.89 L30.4142,46 Z" id="Stroke-1"></path>
                <path d="M35.4142,15 C33.7572,15 32.4142,13.657 32.4142,12 C32.4142,10.343 33.7572,9 35.4142,9 C37.0712,9 38.4142,10.343 38.4142,12 C38.4142,13.657 37.0712,15 35.4142,15 Z" id="Stroke-3"></path>
                <path d="M23.5168,12.001 C22.2198,10.73 21.4138,8.959 21.4138,7 C21.4138,3.134 24.5478,0 28.4138,0 C32.2808,0 35.4138,3.134 35.4138,7 L35.4138,9" id="Stroke-5"></path>
                <polyline id="Stroke-7" points="19.4142 7 13.4142 7 0.4142 20 12.4142 32 23.4142 21"></polyline>
            </g>
        </g>
    </g>
</svg>