<svg width="24" height="27" viewBox="0 0 24 27" xmlns="http://www.w3.org/2000/svg"><title>noun_586552_cc</title><g fill="#FFF" fill-rule="evenodd"><path d="M16.514 18v1.85h.457c.729 0 .835-.59.835-.946 0-.24-.074-.904-.92-.904h-.372zm-3.744 0v.771h.452c.304 0 .623-.021.623-.404 0-.346-.266-.367-.553-.367h-.521z"/><path d="M22.219 14.911h-.416V7.462L15.136.01H3.761A3.545 3.545 0 0 0 .22 3.552v19.896a3.545 3.545 0 0 0 3.54 3.542h14.501a3.545 3.545 0 0 0 3.542-3.542v-.856h.415c.979 0 1.772-.794 1.772-1.772v-4.137c0-.978-.793-1.772-1.772-1.772zM15.602 3.063l3.47 3.878h-3.47V3.063zm4.514 20.385a1.856 1.856 0 0 1-1.854 1.854h-14.5a1.856 1.856 0 0 1-1.855-1.854V3.552c0-1.023.832-1.854 1.854-1.854h10.154v6.93h6.201v6.283h-8.828c-.979 0-1.772.794-1.772 1.773v4.136c0 .978.793 1.772 1.772 1.772h8.828v.856zm-1.14-4.528c0 1.165-.617 1.903-1.94 1.903h-1.692v-3.796h1.92c1.265 0 1.712.936 1.712 1.893zm-4.025-.595c0 .92-.617 1.35-1.49 1.35h-.69v1.148H11.6v-3.796h1.957c1.031 0 1.393.755 1.393 1.298zM22.416 18h-1.765v.474h1.516v.903H20.65v1.447h-1.17v-3.797h2.936V18z"/></g></svg>