<?xml version="1.0" encoding="UTF-8"?>
<svg width="24px" height="27px" viewBox="0 0 24 27" version="1.1" xmlns="http://www.w3.org/2000/svg" xmlns:xlink="http://www.w3.org/1999/xlink">
    <!-- Generator: Sketch 41.2 (35397) - http://www.bohemiancoding.com/sketch -->
    <title>noun_586552_cc</title>
    <desc>Created with Sketch.</desc>
    <defs></defs>
    <g id="4.-Объект:-Квартира" stroke="none" stroke-width="1" fill="none" fill-rule="evenodd">
        <g id="Объекты-[Desktop-960]" transform="translate(-524.000000, -606.000000)" fill="#FFFFFF">
            <g id="noun_586552_cc" transform="translate(524.000000, 606.000000)">
                <g id="Group">
                    <path d="M16.5141563,18 L16.5141563,19.850625 L16.9711875,19.850625 C17.6999063,19.850625 17.8062188,19.26 17.8062188,18.9042188 C17.8062188,18.6645938 17.7316875,18 16.88625,18 L16.5141563,18 Z" id="Shape"></path>
                    <path d="M12.7707188,18 L12.7707188,18.7711875 L13.2224063,18.7711875 C13.5255938,18.7711875 13.8445313,18.7498125 13.8445313,18.36675 C13.8445313,18.0210938 13.57875,17.9997188 13.2915938,17.9997188 L12.7707188,17.9997188 L12.7707188,18 Z" id="Shape"></path>
                    <path d="M22.21875,14.9113125 L21.8033438,14.9113125 L21.8033438,7.46240625 L15.1360313,0.010125 L3.76115625,0.010125 C1.8084375,0.010125 0.21965625,1.598625 0.21965625,3.551625 L0.21965625,23.448375 C0.21965625,25.4010938 1.80815625,26.989875 3.76115625,26.989875 L18.262125,26.989875 C20.2148438,26.989875 21.803625,25.401375 21.803625,23.448375 L21.803625,22.5919688 L22.21875,22.5919688 C23.1975,22.5919688 23.9909063,21.7982813 23.9909063,20.8195313 L23.9909063,16.6834688 C23.9909063,15.7047188 23.1977813,14.9113125 22.21875,14.9113125 Z M15.6023438,3.06253125 L19.0726875,6.94096875 L15.6023438,6.94096875 L15.6023438,3.06253125 Z M20.116125,23.448375 C20.116125,24.4707188 19.2844688,25.302375 18.262125,25.302375 L3.76115625,25.302375 C2.7388125,25.302375 1.90715625,24.4707188 1.90715625,23.448375 L1.90715625,3.551625 C1.90715625,2.52928125 2.7388125,1.697625 3.76115625,1.697625 L13.9148438,1.697625 L13.9148438,8.62846875 L20.116125,8.62846875 L20.116125,14.9113125 L11.28825,14.9113125 C10.3095,14.9113125 9.5158125,15.7047188 9.5158125,16.68375 L9.5158125,20.8198125 C9.5158125,21.7982813 10.3092188,22.59225 11.28825,22.59225 L20.116125,22.59225 L20.116125,23.448375 Z M18.9759375,18.9199688 C18.9759375,20.084625 18.3591563,20.8234688 17.0353125,20.8234688 L15.3441563,20.8234688 L15.3441563,17.0271563 L17.2636875,17.0271563 C18.5293125,17.0271563 18.9759375,17.9631563 18.9759375,18.9199688 Z M14.9506875,18.3245625 C14.9506875,19.24425 14.3339063,19.6748438 13.46175,19.6748438 L12.7707188,19.6748438 L12.7707188,20.8234688 L11.6007188,20.8234688 L11.6007188,17.0271563 L13.5576563,17.0271563 C14.589,17.0271563 14.9506875,17.7820313 14.9506875,18.3245625 Z M22.4164688,18 L20.6513438,18 L20.6513438,18.473625 L22.1667188,18.473625 L22.1667188,19.3772813 L20.6513438,19.3772813 L20.6513438,20.82375 L19.4813438,20.82375 L19.4813438,17.0271563 L22.41675,17.0271563 L22.41675,18 L22.4164688,18 Z" id="Shape"></path>
                </g>
            </g>
        </g>
    </g>
</svg>