<svg width="140" height="140" viewBox="0 0 140 140" xmlns="http://www.w3.org/2000/svg" xmlns:xlink="http://www.w3.org/1999/xlink"><title>Page 1</title><defs><path id="a" d="M139.89 69.945v69.945H0V0h139.89v69.945z"/></defs><g fill="none" fill-rule="evenodd"><mask id="b" fill="#fff"><use xlink:href="#a"/></mask><path d="M103.995 45.39a3.018 3.018 0 0 1 0 4.268L59.153 94.5a3.01 3.01 0 0 1-2.134.885 3.01 3.01 0 0 1-2.134-.885L35.894 75.512a3.018 3.018 0 1 1 4.268-4.27l16.855 16.856 42.709-42.709a3.018 3.018 0 0 1 4.269 0m-34.05 88.464c-35.24 0-63.91-28.67-63.91-63.91 0-35.24 28.67-63.908 63.91-63.908 35.24 0 63.91 28.67 63.91 63.91 0 35.24-28.67 63.908-63.91 63.908M69.945 0C31.377 0 0 31.376 0 69.945c0 38.568 31.377 69.945 69.945 69.945s69.945-31.377 69.945-69.945C139.89 31.376 108.513 0 69.945 0" fill="#0062CD" mask="url(#b)"/></g></svg>