<svg width="27" height="27" viewBox="0 0 27 27" xmlns="http://www.w3.org/2000/svg"><title>noun_297770_cc</title><path d="M26.707 2.293l-2-2a.999.999 0 0 0-1.414 0l-15 15a.994.994 0 0 0-.24.391l-1 3c-.121.36-.024.756.24 1.023a1.002 1.002 0 0 0 1.023.241l3-1c.146-.05.278-.132.391-.24l15-15a.999.999 0 0 0 0-1.415zM10.461 17.126l-.881.293.293-.879L24 2.414l.586.586-14.125 14.126zM25 8a1 1 0 0 0-1 1v13c0 1.654-1.346 3-3 3H5c-1.654 0-3-1.346-3-3V6c0-1.654 1.346-3 3-3h12a1 1 0 1 0 0-2H5C2.242 1 0 3.243 0 6v16c0 2.757 2.242 5 5 5h16c2.758 0 5-2.243 5-5V9a1 1 0 0 0-1-1z" fill="#FFF" fill-rule="evenodd"/></svg>