<svg width="121" height="124" viewBox="0 0 121 124" xmlns="http://www.w3.org/2000/svg"><title>Group 10</title><g fill-rule="evenodd"><g transform="translate(26 19)"><path d="M72.08 35.86a1.029 1.029 0 1 0-.003 2.06 1.029 1.029 0 0 0 .003-2.06z"/><ellipse cx="69.32" cy="23.09" rx=".67" ry=".67"/><path d="M69.32 49.9c-.37 0-.67.31-.67.67a.67.67 0 0 0 1.34 0c0-.36-.301-.67-.67-.67zm-7.56-36.82c.561 0 1.03-.46 1.03-1.03 0-.56-.47-1.03-1.03-1.03-.57 0-1.029.471-1.029 1.03-.001.57.458 1.03 1.029 1.03zm0 47.63a1.026 1.026 0 1 0 0 2.05c.561 0 1.03-.46 1.03-1.029 0-.561-.47-1.021-1.03-1.021zM50.721 5.28c.369 0 .67-.3.67-.67 0-.36-.301-.67-.67-.67a.677.677 0 0 0-.671.67c0 .37.3.67.671.67z"/><circle cx="50.721" cy="69.17" r=".67"/><path d="M36.92 2.76c.56 0 1.03-.46 1.03-1.029 0-.561-.47-1.021-1.03-1.021-.57 0-1.03.46-1.03 1.021 0 .569.46 1.029 1.03 1.029zm0 68.14a1.029 1.029 0 1 0 0 2.059c.56 0 1.03-.46 1.03-1.03 0-.559-.47-1.029-1.03-1.029zM23.24 5.28c.37 0 .67-.3.67-.67 0-.36-.3-.67-.67-.67-.37 0-.67.31-.67.67 0 .37.3.67.67.67z"/><ellipse cx="23.24" cy="69.17" rx=".67" ry=".67"/><path d="M12.2 13.08c.56 0 1.03-.46 1.03-1.03 0-.56-.47-1.03-1.03-1.03-.57 0-1.03.471-1.03 1.03 0 .57.46 1.03 1.03 1.03zm0 47.63c-.57 0-1.03.46-1.03 1.021 0 .569.46 1.029 1.03 1.029.56 0 1.03-.46 1.03-1.029 0-.561-.47-1.021-1.03-1.021zm57.191-23.75a.25.25 0 0 0-.211-.25l-3.65-.58c-.199-7.61-3.329-14.45-8.309-19.45-.011-.02-.011-.05-.031-.06-.01-.021-.039-.021-.049-.03A28.563 28.563 0 0 0 37.68 8.28l-.58-3.65a.246.246 0 0 0-.24-.21h-.01c-.12 0-.22.09-.24.22l-.57 3.641c-7.56.229-14.37 3.35-19.34 8.31-.02.01-.04.01-.06.03-.02.01-.02.04-.03.06-4.98 5-8.11 11.84-8.31 19.45l-3.64.58a.241.241 0 0 0-.21.25c0 .12.09.22.21.24l3.64.569c.23 7.561 3.35 14.36 8.31 19.341.01.02.01.04.03.06.01.021.04.01.05.021 4.98 4.96 11.78 8.079 19.34 8.31l.58 3.77c.02.12.12.211.24.211h.01c.12 0 .22-.091.24-.211l.6-3.76c7.6-.21 14.44-3.34 19.44-8.319.02-.011.039 0 .049-.021.021-.02.021-.04.031-.06 4.959-4.98 8.079-11.78 8.309-19.341l3.641-.571c.13-.02.221-.12.221-.24zM35.96 8.79l-1.33 8.62c-3.81.439-7.36 1.97-10.31 4.43l-7.1-5.06a28.046 28.046 0 0 1 18.74-7.99zM20.12 29.71l6.31 1.1 1.55 2.181-2.74.43-5.12-3.711zm4.42 3.83l-6.61 1.05c.21-1.71.64-3.359 1.28-4.92l5.33 3.87zm-5.08-4.46c.69-1.54 1.59-3 2.68-4.33l3.88 5.48-6.56-1.15zm-.71-9.98l13.18 13.26-3.4.54-9.78-13.8zm6 3.05a18.773 18.773 0 0 1 4.34-2.7l1.17 6.63-5.51-3.93zm6.09 4.34l-1.11-6.271 3.67 5.061-.42 2.739-2.14-1.529zm-1.22-7.27c1.57-.649 3.22-1.09 4.93-1.3l-1.04 6.66-3.89-5.36zM16.8 17.21l5.04 7.12a19.5 19.5 0 0 0-4.42 10.34L8.8 36.05c.22-7.35 3.23-13.97 8-18.84zM8.81 37.85l8.62 1.33c.44 3.811 1.97 7.36 4.43 10.311l-5.06 7.09A28.005 28.005 0 0 1 8.81 37.85zm20.92 15.84l1.13-6.37-.04-.011 2.16-1.54.44 2.841-3.69 5.08zm3.79-4.38l1.02 6.551c-1.68-.2-3.31-.63-4.85-1.261l3.83-5.29zm-4.41 5.04a18.43 18.43 0 0 1-4.36-2.71l5.54-3.949-1.18 6.659zm-9.98.69L32.36 41.8l.53 3.42-13.76 9.82zm3.04-5.98a18.922 18.922 0 0 1-2.71-4.35l6.55-1.04-3.84 5.39zm4.25-5.96l-6.3 1 5.22-3.689 2.7.42-1.62 2.269zm-7.21 1.03c-.63-1.55-1.06-3.18-1.27-4.87l6.69 1.04-5.42 3.83zm-1.99 12.88l7.1-5.06a19.551 19.551 0 0 0 10.3 4.43L35.95 65c-7.3-.25-13.87-3.24-18.73-7.99zm15.23-16l-24.51-3.8h28.31l-3.8 3.8zm4.16-4.66l-3.82-3.84 1.14-7.33.01-.01-.01-.01 2.68-17.24v28.43zm28.419-.3l-8.619-1.38a19.5 19.5 0 0 0-4.42-10.34l5.039-7.13c4.782 4.88 7.782 11.5 8 18.85zM44.1 20.22L43 26.41l-2.18 1.54-.42-2.63 3.7-5.1zm-3.81 4.4l-1.069-6.71c1.729.21 3.409.649 4.989 1.31l-3.92 5.4zm4.46-5.17a19.71 19.71 0 0 1 4.311 2.67L43.58 26l1.17-6.55zm10.01-.75L41.471 31.99l-.561-3.49 13.85-9.8zm-3.071 6.05c1.09 1.33 1.99 2.79 2.681 4.33l-6.56 1.15 3.879-5.48zM47.4 30.81l6.289-1.1-5.199 3.7-2.631-.42 1.541-2.18zm7.22-1.15c.64 1.57 1.069 3.22 1.28 4.93l-6.7-1.07 5.42-3.86zm1.989-12.88l-7.129 5.04a19.506 19.506 0 0 0-10.34-4.42l-1.381-8.62c7.35.22 13.971 3.22 18.85 8zM37.11 66.07V37.56l3.91 3.881-3.91 24.629zm16.579-21.98l-6.279-.99-1.62-2.27 2.601-.4 5.298 3.66zm-4.58-3.77l6.781-1.061a19.24 19.24 0 0 1-1.271 4.87l-5.51-3.809zm5.261 4.39a19.265 19.265 0 0 1-2.7 4.35l-3.85-5.39 6.55 1.04zm.73 10.02L41.74 41.46l3.5-.54 9.86 13.81zm-6.039-3.06a19.287 19.287 0 0 1-4.33 2.68l-1.17-6.58 5.5 3.9zm-6.081-4.31l1.119 6.33-3.709-5.12.43-2.73 2.16 1.52zm1.161 7.24a18.704 18.704 0 0 1-4.91 1.271l1.049-6.601 3.861 5.33zM37.78 65l1.371-8.61c3.82-.43 7.379-1.96 10.33-4.42l7.129 5.04A28.042 28.042 0 0 1 37.78 65zm19.249-8.42l-5.059-7.09a19.546 19.546 0 0 0 4.43-10.311l8.619-1.33a28 28 0 0 1-7.99 18.731zM37.46 36.71l3.92-3.93 24.601 3.93H37.46z"/><circle cx="4.64" cy="23.09" r=".67"/><path d="M4.64 49.9c-.37 0-.67.31-.67.67a.67.67 0 0 0 1.34 0c0-.36-.3-.67-.67-.67zM1.88 35.86a1.029 1.029 0 1 0 0 2.059c.56 0 1.03-.46 1.03-1.03 0-.559-.47-1.029-1.03-1.029z"/></g><text font-family=".AppleSystemUIFont" font-size="18" transform="translate(0 -4)"><tspan x="53" y="17">C</tspan></text><text font-family=".AppleSystemUIFont" font-size="18" transform="translate(0 -4)"><tspan x="53" y="127">Ю</tspan></text><text font-family=".AppleSystemUIFont" font-size="18" transform="translate(0 -4)"><tspan x="0" y="72">З</tspan></text><text font-family=".AppleSystemUIFont" font-size="18" transform="translate(0 -4)"><tspan x="110" y="72">В</tspan></text></g></svg>