<svg width="136" height="130" viewBox="0 0 136 130" xmlns="http://www.w3.org/2000/svg" xmlns:xlink="http://www.w3.org/1999/xlink"><title>Group 9</title><defs><path d="M45.782 57.494c5.722-9.454 14.993-9.464 20.722 0l16.078 26.564c5.722 9.454 1.41 17.118-9.63 17.118h-33.62c-11.04 0-15.357-7.654-9.628-17.118l16.078-26.564z" id="a"/><mask id="b" x="0" y="0" width="57.941" height="50.776" fill="#fff"><use xlink:href="#a"/></mask></defs><g fill="none" fill-rule="evenodd"><text font-family="GothamPro-Bold, Gotham Pro" font-size="12" font-weight="bold" fill="#0062CD"><tspan x="100" y="84.6">МОРЕ</tspan></text><text font-family="GothamPro-Bold, Gotham Pro" font-size="12" font-weight="bold" fill="#0062CD"><tspan x="46.4" y="33.4">МОРЕ</tspan></text><text font-family="GothamPro-Bold, Gotham Pro" font-size="12" font-weight="bold" fill="#0062CD"><tspan x="2.4" y="127.8">горы</tspan></text><use stroke="#0062CD" mask="url(#b)" stroke-width="6" transform="rotate(180 56.141 75.788)" xlink:href="#a"/><path d="M68.07 5.268c-2.164 0-3.411-1.242-4.51-2.339-.854-.851-1.593-1.587-2.618-1.587-1.01 0-1.742.73-2.59 1.576-1.102 1.101-2.352 2.35-4.539 2.35-2.165 0-3.412-1.242-4.511-2.339-.854-.851-1.593-1.587-2.617-1.587V.031c1.587 0 2.597 1.006 3.574 1.98 1.004 1 1.952 1.946 3.554 1.946 1.623 0 2.574-.95 3.582-1.956.97-.969 1.973-1.97 3.547-1.97 1.588 0 2.598 1.006 3.575 1.98 1.004 1 1.952 1.946 3.554 1.946 1.622 0 2.575-.95 3.582-1.956.97-.969 1.973-1.97 3.547-1.97v1.311c-1.011 0-1.742.73-2.59 1.576-1.102 1.101-2.352 2.35-4.54 2.35zm0 6.551c-2.164 0-3.411-1.242-4.51-2.339-.854-.852-1.593-1.587-2.618-1.587-1.01 0-1.742.73-2.59 1.576-1.102 1.101-2.352 2.35-4.539 2.35-2.165 0-3.412-1.242-4.511-2.339-.854-.852-1.593-1.587-2.617-1.587V6.582c1.587 0 2.597 1.006 3.574 1.98 1.004 1 1.952 1.946 3.554 1.946 1.623 0 2.574-.95 3.582-1.956.97-.969 1.973-1.97 3.547-1.97 1.588 0 2.598 1.006 3.575 1.98 1.004 1 1.952 1.946 3.554 1.946 1.622 0 2.575-.95 3.582-1.956.97-.969 1.973-1.97 3.547-1.97v1.311c-1.011 0-1.742.73-2.59 1.576-1.102 1.101-2.352 2.35-4.54 2.35zm0 6.551c-2.164 0-3.411-1.242-4.51-2.339-.854-.852-1.593-1.587-2.618-1.587-1.01 0-1.742.73-2.59 1.576-1.102 1.1-2.352 2.35-4.539 2.35-2.165 0-3.412-1.242-4.511-2.339-.854-.852-1.593-1.587-2.617-1.587v-1.311c1.587 0 2.597 1.006 3.574 1.98 1.004 1 1.952 1.945 3.554 1.945 1.623 0 2.574-.95 3.582-1.955.97-.969 1.973-1.97 3.547-1.97 1.588 0 2.598 1.006 3.575 1.98 1.004 1 1.952 1.945 3.554 1.945 1.622 0 2.575-.95 3.582-1.955.97-.969 1.973-1.97 3.547-1.97v1.311c-1.011 0-1.742.73-2.59 1.576-1.102 1.1-2.352 2.35-4.54 2.35zm52.8 37.298c-2.164 0-3.411-1.242-4.51-2.339-.854-.851-1.593-1.587-2.618-1.587-1.01 0-1.742.73-2.59 1.576-1.102 1.101-2.352 2.35-4.539 2.35-2.165 0-3.412-1.242-4.511-2.339-.854-.851-1.593-1.587-2.617-1.587v-1.311c1.587 0 2.597 1.006 3.574 1.98 1.004 1 1.952 1.946 3.554 1.946 1.623 0 2.574-.95 3.582-1.956.97-.969 1.973-1.97 3.547-1.97 1.588 0 2.598 1.006 3.575 1.98 1.004 1 1.952 1.946 3.554 1.946 1.622 0 2.575-.95 3.582-1.956.97-.969 1.973-1.97 3.547-1.97v1.311c-1.011 0-1.742.73-2.59 1.576-1.102 1.101-2.352 2.35-4.54 2.35zm0 6.551c-2.164 0-3.411-1.242-4.51-2.339-.854-.852-1.593-1.587-2.618-1.587-1.01 0-1.742.73-2.59 1.576-1.102 1.101-2.352 2.35-4.539 2.35-2.165 0-3.412-1.242-4.511-2.339-.854-.852-1.593-1.587-2.617-1.587v-1.311c1.587 0 2.597 1.006 3.574 1.98 1.004 1 1.952 1.946 3.554 1.946 1.623 0 2.574-.95 3.582-1.956.97-.969 1.973-1.97 3.547-1.97 1.588 0 2.598 1.006 3.575 1.98 1.004 1 1.952 1.946 3.554 1.946 1.622 0 2.575-.95 3.582-1.956.97-.969 1.973-1.97 3.547-1.97v1.311c-1.011 0-1.742.73-2.59 1.576-1.102 1.101-2.352 2.35-4.54 2.35zm0 6.551c-2.164 0-3.411-1.242-4.51-2.339-.854-.852-1.593-1.587-2.618-1.587-1.01 0-1.742.73-2.59 1.576-1.102 1.1-2.352 2.35-4.539 2.35-2.165 0-3.412-1.242-4.511-2.339-.854-.852-1.593-1.587-2.617-1.587v-1.311c1.587 0 2.597 1.006 3.574 1.98 1.004 1 1.952 1.945 3.554 1.945 1.623 0 2.574-.95 3.582-1.955.97-.969 1.973-1.97 3.547-1.97 1.588 0 2.598 1.006 3.575 1.98 1.004 1 1.952 1.945 3.554 1.945 1.622 0 2.575-.95 3.582-1.955.97-.969 1.973-1.97 3.547-1.97v1.311c-1.011 0-1.742.73-2.59 1.576-1.102 1.1-2.352 2.35-4.54 2.35zM22.111 93.727l-7.281 9.492-1.653-3.034-3.99 1.544-2.41-4.085L0 112.137l34.4.029-12.289-18.439zm2.266 14.177l-2.266-3.483-2.722 4.518-2.972-2.197-2.91 2.497-1.568-2.735-2.6 1.302-.716-2.143-2.474 2.924-1.095-2.01-3.19 3.524 3.313-7.154 1.694-3.703 2.165 4.004 3.859-2.122 1.783 4.922L22.036 95.5l5.795 8.66 4.83 7.414-6.872-6.764-1.412 3.094z" fill="#0062CD"/></g></svg>