<svg width="32" height="33" viewBox="0 0 32 33" xmlns="http://www.w3.org/2000/svg"><title>noun_603541_cc</title><path d="M16 .356c-8.824 0-16 7.176-16 16 0 8.823 7.176 16 16 16s16-7.177 16-16c0-8.824-7.176-16-16-16zm0 2.133a13.85 13.85 0 0 1 13.867 13.867A13.85 13.85 0 0 1 16 30.222 13.85 13.85 0 0 1 2.133 16.356 13.85 13.85 0 0 1 16 2.489zm7.789 7.1c-.279.01-.542.13-.733.333l-10.267 10.6-3.856-3.855a1.067 1.067 0 1 0-1.51 1.5l4.621 4.622a1.067 1.067 0 0 0 1.523-.011L24.589 11.4a1.067 1.067 0 0 0-.8-1.811z" fill="#0062CD" fill-rule="evenodd"/></svg>