<svg width="16" height="16" viewBox="0 0 16 16" xmlns="http://www.w3.org/2000/svg"><title>Page 1</title><g fill="#8A8A8A" fill-rule="evenodd"><path d="M9.838 2.63c-1.139 0-2.731 1.658-3.704 3.86-1.236 2.795-1.022 5.137-.047 5.568l.996.44a.77.77 0 0 0 .996-.385l.293-.664a.758.758 0 0 0-.387-.998l-.995-.439c-.396-.175-.61-.637-.602-1.3.007-.568.17-1.243.463-1.903.467-1.058 1.305-2.125 2.123-2.125.12 0 .235.024.34.07l.996.44a.768.768 0 0 0 .997-.385l.293-.666a.746.746 0 0 0 .014-.578.739.739 0 0 0-.4-.418l-.995-.44a.907.907 0 0 0-.381-.078zm-2.45 10.6c-.198 0-.391-.041-.574-.121l-.996-.441c-1.474-.653-1.603-3.485-.293-6.448 1.108-2.507 2.881-4.257 4.314-4.257.23 0 .45.043.651.132l.996.441c.347.153.615.433.751.787a1.42 1.42 0 0 1-.024 1.09l-.293.664c-.308.697-1.175 1.035-1.875.727l-.996-.44c-.254-.113-1.018.43-1.584 1.713-.252.571-.401 1.17-.406 1.641-.004.408.1.637.205.683l.996.439c.717.32 1.043 1.16.726 1.876l-.293.663a1.431 1.431 0 0 1-1.305.852z"/><path d="M8 16c-1.279 0-2.064-.28-2.401-.853-.468-.798.106-1.824.524-2.574l.061-.108c.09-.16.292-.22.453-.128.162.09.22.292.13.453l-.062.11c-.32.575-.806 1.443-.531 1.911.201.342.833.522 1.825.522 4.044 0 7.334-3.29 7.334-7.333S12.043.667 7.999.667C3.956.667.666 3.957.666 8c0 2.111.91 4.123 2.5 5.514a.334.334 0 0 1-.44.501A8.005 8.005 0 0 1 0 8c0-4.41 3.589-8 8-8s8 3.59 8 8c0 4.411-3.59 8-8 8"/></g></svg>