<svg width="24" height="24" viewBox="0 0 24 24" xmlns="http://www.w3.org/2000/svg"><title>noun_81441_cc</title><g fill-rule="evenodd"><path d="M12 0C5.373 0 0 5.373 0 12s5.373 12 12 12 12-5.373 12-12S18.627 0 12 0zm0 23.182C5.836 23.182.818 18.164.818 12 .818 5.836 5.836.818 12 .818 18.164.818 23.182 5.836 23.182 12c0 6.164-5.018 11.182-11.182 11.182z"/><path d="M20.236 11.7l-4.09-4.09a.395.395 0 0 0-.573 0 .395.395 0 0 0 0 .572l3.382 3.382H4.064a.42.42 0 0 0-.41.409.42.42 0 0 0 .41.409h14.918l-3.41 3.409a.395.395 0 0 0 .3.682.41.41 0 0 0 .3-.11l4.092-4.09c.027-.028.081-.082.081-.137.028-.054.028-.109.028-.136 0-.027 0-.11-.028-.136-.027-.082-.081-.11-.109-.164z"/></g></svg>