<?xml version="1.0" encoding="UTF-8"?>
<svg width="160px" height="33px" viewBox="0 0 160 33" version="1.1" xmlns="http://www.w3.org/2000/svg" xmlns:xlink="http://www.w3.org/1999/xlink">
    <!-- Generator: Sketch 41.2 (35397) - http://www.bohemiancoding.com/sketch -->
    <title>Group 3</title>
    <desc>Created with Sketch.</desc>
    <defs></defs>
    <g id="Symbols" stroke="none" stroke-width="1" fill="none" fill-rule="evenodd">
        <g id="Header_1600" transform="translate(-200.000000, -25.000000)">
            <g id="Group-10">
                <g id="Group-3" transform="translate(200.000000, 25.000000)">
                    <text id="КРЫМГРАД" font-family=".AppleSystemUIFont" font-size="19" font-weight="normal" letter-spacing="2.11111116" fill="#000000">
                        <tspan x="42" y="23">КРЫМГРАД</tspan>
                    </text>
                    <g id="Page-1" fill="#252525">
                        <g id="Group-7">
                            <path d="M16.1145061,1.21003741 C15.0078463,2.2062483 14.0871388,3.14858163 12.4958803,3.1477585 C11.8642408,3.14738435 11.2286354,3.07719388 10.5986422,3.03738435 C12.0569279,3.57054762 13.3749075,4.04579252 14.9723769,3.80244558 C15.8110707,3.67463605 16.7057374,3.41752041 17.3908054,2.89879932 C18.0439211,2.40439796 18.545581,1.72007823 19.3394517,1.4325068 C20.4161796,1.0424932 21.697717,1.52469728 22.7971184,1.71162245 C22.032581,1.23069048 21.2725333,0.678595238 20.4402748,0.32442517 C18.8322544,-0.360044218 17.3618463,0.0872142857 16.1145061,1.21003741" id="Fill-1"></path>
                            <path d="M11.8358279,0.501891837 C10.1009707,0.713211565 9.05125646,1.83566054 8.53246054,3.43178299 C8.07218163,4.84786463 7.74592313,6.12431361 6.36740612,6.91923197 C5.82024966,7.23471497 5.23463061,7.49175578 4.66921565,7.7722932 C6.19873946,7.50485102 7.57770544,7.25746327 8.83948776,6.24793265 C9.50195714,5.71798707 10.1481136,5.04788503 10.4821544,4.25610952 C10.8005558,3.50144966 10.8927463,2.65796667 11.4365354,2.01203469 C12.1739844,1.13585102 13.5249639,0.912708163 14.5704878,0.524864626 C13.6679639,0.490667347 12.7337122,0.392565306 11.8358279,0.501891837" id="Fill-3"></path>
                            <path d="M6.85265578,3.61040204 C6.05399592,4.03206871 5.19577143,4.41422517 4.47291429,4.95786463 C3.07613878,6.00825238 2.72825442,7.50522517 3.0769619,9.14691905 C3.3864585,10.6034088 3.74212517,11.8720007 2.94578503,13.2496197 C2.62962857,13.7964769 2.25098912,14.3118306 1.90153333,14.8375109 C3.0924517,13.8411503 4.16304354,12.9374293 4.75098231,11.4323 C5.05973061,10.6420959 5.28429524,9.73867415 5.17766259,8.88598707 C5.07604354,8.07325918 4.73422041,7.29667415 4.88215918,6.46531361 C5.0827034,5.33785102 6.14109796,4.46907551 6.85265578,3.61040204" id="Fill-5"></path>
                            <path d="M2.89883673,15.5477891 C2.40443537,14.8946735 1.72011565,14.3930884 1.43254422,13.5991429 C1.04253061,12.5224898 1.52473469,11.2409524 1.71158503,10.1414762 C1.23072789,10.9060136 0.678632653,11.6660612 0.324387755,12.4983197 C-0.360006803,14.1063401 0.0871768707,15.5767483 1.21007483,16.8241633 C2.20628571,17.9307483 3.14861905,18.8514558 3.14772109,20.4427891 C3.14742177,21.0744286 3.07715646,21.710034 3.03742177,22.3400272 C3.57058503,20.8816667 4.04582993,19.5637619 3.80240816,17.9662925 C3.67467347,17.1275986 3.41748299,16.232932 2.89883673,15.5477891" id="Fill-7"></path>
                            <path d="M4.25615442,22.456515 C3.50149456,22.1381136 2.65801156,22.0458483 2.01200476,21.502134 C1.13589592,20.764685 0.912753061,19.4137054 0.524909524,18.3681068 C0.490637415,19.2706306 0.392535374,20.2049571 0.501936735,21.1028415 C0.713181633,22.8376238 1.83570544,23.8874129 3.43182789,24.4062088 C4.84783469,24.8664878 6.1243585,25.1926714 6.91920204,26.5711884 C7.23475986,27.1184197 7.49172585,27.7040388 7.77226327,28.2695286 C7.50489592,26.7399299 7.25743333,25.3608891 6.24797755,24.0991816 C5.71795714,23.4367122 5.04792993,22.790481 4.25615442,22.456515" id="Fill-9"></path>
                            <path d="M11.4323,28.1876497 C10.6420959,27.8789762 9.73867415,27.6543367 8.88598707,27.7609694 C8.07325918,27.8625884 7.29667415,28.2044116 6.46531361,28.0564728 C5.33785102,27.8558537 4.46907551,26.797534 3.61040204,26.0859762 C4.03206871,26.8847109 4.41422517,27.7428605 4.95793946,28.4657925 C6.00825238,29.8624932 7.5053,30.2103776 9.14691905,29.8615952 C10.6034088,29.5521735 11.8720007,29.196432 13.2496946,29.9929218 C13.7964769,30.3090034 14.3118306,30.6876429 14.8375109,31.0370986 C13.8411503,29.8461054 12.9374293,28.7755884 11.4323,28.1876497" id="Fill-11"></path>
                            <path d="M17.9662925,29.1361789 C17.1275986,29.2639884 16.232932,29.5211789 15.5477891,30.0398252 C14.8947483,30.5342265 14.3931633,31.2184714 13.5992177,31.5061177 C12.5224898,31.8961313 11.2409524,31.4138524 10.141551,31.227002 C10.9060136,31.707934 11.6661361,32.2600293 12.4983197,32.6141993 C14.1063401,33.2986687 15.5767483,32.8514102 16.8240884,31.7285871 C17.9307483,30.7323762 18.8515306,29.7900429 20.4428639,29.790866 C21.0744286,29.7912401 21.710034,29.8614306 22.3400272,29.901315 C20.8816667,29.3680769 19.5637619,28.892832 17.9662925,29.1361789" id="Fill-13"></path>
                            <path d="M22.4565224,28.6824476 C22.1381211,29.4371823 22.0458558,30.2805905 21.5020667,30.9265973 C20.7646925,31.8027061 19.4137129,32.0259238 18.3681143,32.4137673 C19.2706381,32.4479646 20.2049646,32.5460667 21.1027741,32.4367401 C22.8376313,32.2254952 23.8874204,31.1029714 24.4062163,29.506849 C24.8664952,28.0907673 25.1926789,26.8143184 26.5712707,26.0194 C27.1184272,25.7038422 27.7040463,25.4468762 28.2695361,25.1664136 C26.7399374,25.433781 25.3608966,25.6812435 24.0991891,26.6906993 C23.4367946,27.2206449 22.7904884,27.8907469 22.4565224,28.6824476" id="Fill-15"></path>
                            <path d="M28.1876646,21.5063395 C27.8789912,22.2965435 27.6543517,23.1999653 27.7609844,24.0526524 C27.8626034,24.8653803 28.2044265,25.6419653 28.0564878,26.473251 C27.8558687,27.6007884 26.797549,28.4694891 26.0859912,29.3282374 C26.8847259,28.9065707 27.7428755,28.5244143 28.4658075,27.9807748 C29.8625082,26.9303871 30.2103925,25.4333395 29.8616102,23.7917204 C29.5521884,22.3352306 29.1964469,21.0666388 29.9929367,19.6889449 C30.3090184,19.1421626 30.6876578,18.6268088 31.0371136,18.1011286 C29.8461204,19.0974891 28.7756034,20.0012102 28.1876646,21.5063395" id="Fill-17"></path>
                            <path d="M29.790881,12.4958354 C29.7912551,11.8641959 29.8614456,11.2285905 29.9013299,10.5985973 C29.3680918,12.0569578 28.8928469,13.3748626 29.1361939,14.972332 C29.2640034,15.8110259 29.5211939,16.7056925 30.0398401,17.3908354 C30.5342415,18.043951 31.2184864,18.5455361 31.5061327,19.3394816 C31.8961463,20.4161347 31.4138673,21.6976721 31.227017,22.7971483 C31.707949,22.0326109 32.2600442,21.2725633 32.6142143,20.4403048 C33.2986837,18.8322844 32.8514252,17.3618762 31.728602,16.1144612 C30.7323912,15.0078762 29.7900578,14.0871687 29.790881,12.4958354" id="Fill-19"></path>
                            <path d="M29.506834,8.53240816 C28.0907524,8.07212925 26.8143782,7.74594558 26.0194599,6.36735374 C25.703902,5.82019728 25.4468612,5.23465306 25.1663986,4.66916327 C25.433766,6.19868707 25.6812286,7.57765306 26.6906844,8.8395102 C27.2206299,9.50190476 27.890732,10.1481361 28.6824327,10.482102 C29.4371673,10.8005034 30.2806503,10.8927687 30.9266571,11.4365578 C31.802766,12.1740068 32.0259088,13.5249116 32.4138272,14.5705102 C32.4480245,13.6679864 32.5460517,12.7336599 32.4367252,11.8358503 C32.2254803,10.1009932 31.1029565,9.05120408 29.506834,8.53240816" id="Fill-21"></path>
                            <path d="M23.791698,3.07698435 C22.3352082,3.38640612 21.0666912,3.74214762 19.6889973,2.94573265 C19.1421401,2.62957619 18.6267864,2.25101156 18.1011061,1.90155578 C19.0975415,3.09247415 20.0012626,4.16299116 21.5063918,4.75100476 C22.2965959,5.05967823 23.2000177,5.28431769 24.0526299,5.17768503 C24.8654327,5.07606599 25.6420177,4.73424286 26.4733034,4.88218163 C27.600766,5.08272585 28.4695415,6.14112041 29.328215,6.85267823 C28.9066231,6.05394354 28.5243918,5.19579388 27.9807524,4.4728619 C26.9303646,3.07608639 25.433317,2.72820204 23.791698,3.07698435" id="Fill-23"></path>
                        </g>
                        <polygon id="К" points="12 21.996 14.086 21.996 14.086 17.796 16.466 17.796 18.412 21.996 20.568 21.996 18.202 16.858 20.442 12 18.286 12 16.452 15.906 14.086 15.906 14.086 12 12 12"></polygon>
                    </g>
                </g>
            </g>
        </g>
    </g>
</svg>