<svg width="18" height="17" viewBox="0 0 18 17" xmlns="http://www.w3.org/2000/svg"><title>noun_613777_cc copy</title><path d="M3.056 13.5a2.815 2.815 0 0 1 2.756-2.25c1.36 0 2.496.967 2.757 2.25h8.681a.563.563 0 0 1 0 1.125H8.569a2.815 2.815 0 0 1-2.757 2.25 2.815 2.815 0 0 1-2.756-2.25H.75a.563.563 0 0 1 0-1.125h2.306zm2.756 2.25a1.69 1.69 0 0 1-1.687-1.688c0-.93.757-1.687 1.688-1.687.93 0 1.687.757 1.687 1.688a1.69 1.69 0 0 1-1.688 1.687zm3.62-7.875a2.815 2.815 0 0 1 2.755-2.25c1.36 0 2.496.967 2.757 2.25h2.306a.563.563 0 0 1 0 1.125h-2.306a2.815 2.815 0 0 1-2.757 2.25A2.815 2.815 0 0 1 9.431 9H.75a.563.563 0 0 1 0-1.125h8.681zm2.755 2.25A1.69 1.69 0 0 1 10.5 8.437c0-.93.757-1.687 1.688-1.687.93 0 1.687.757 1.687 1.688a1.69 1.69 0 0 1-1.688 1.687zM3.057 2.25A2.815 2.815 0 0 1 5.812 0c1.36 0 2.495.967 2.756 2.25h8.681a.563.563 0 0 1 0 1.125h-8.68a2.815 2.815 0 0 1-2.757 2.25 2.815 2.815 0 0 1-2.756-2.25H.75a.563.563 0 0 1 0-1.125h2.306zM5.812 4.5a1.69 1.69 0 0 1-1.688-1.688c0-.93.757-1.687 1.688-1.687.93 0 1.687.757 1.687 1.688A1.69 1.69 0 0 1 5.812 4.5z" fill="#FFF" fill-rule="evenodd"/></svg>