<svg width="205" height="205" viewBox="0 0 205 205" xmlns="http://www.w3.org/2000/svg"><title>Page 1</title><g fill="#E2E2E2" fill-rule="evenodd" opacity=".399"><path d="M100.105 7.517c-6.874 6.188-12.594 12.042-22.48 12.037-3.923-.002-7.871-.438-11.785-.685 9.06 3.312 17.247 6.264 27.17 4.752 5.21-.794 10.768-2.39 15.024-5.613 4.057-3.072 7.173-7.323 12.105-9.11 6.689-2.422 14.65.574 21.48 1.735-4.75-2.988-9.471-6.417-14.642-8.618-9.989-4.252-19.123-1.473-26.872 5.502"/><path d="M73.526 3.118c-10.778 1.313-17.298 8.285-20.521 18.2-2.86 8.798-4.886 16.727-13.45 21.665-3.399 1.96-7.037 3.557-10.55 5.3 9.502-1.662 18.069-3.199 25.907-9.47 4.115-3.292 8.13-7.455 10.204-12.374 1.978-4.688 2.551-9.927 5.93-13.94 4.58-5.443 12.973-6.83 19.468-9.238-5.607-.213-11.41-.822-16.988-.143"/><path d="M42.57 22.428c-4.962 2.62-10.293 4.994-14.784 8.37-8.677 6.526-10.838 15.825-8.672 26.024 1.923 9.048 4.133 16.928-.814 25.486-1.964 3.397-4.317 6.599-6.487 9.864 7.398-6.19 14.048-11.803 17.7-21.153 1.919-4.909 3.314-10.521 2.651-15.818-.631-5.049-2.754-9.873-1.835-15.038 1.245-7.004 7.82-12.4 12.24-17.735"/><path d="M18.008 96.585c-3.071-4.057-7.322-7.173-9.109-12.105-2.423-6.689.573-14.65 1.734-21.48-2.988 4.75-6.417 9.471-8.618 14.641-4.251 9.99-1.473 19.124 5.502 26.873 6.189 6.874 12.043 12.594 12.037 22.48-.002 3.923-.438 7.871-.685 11.785 3.312-9.06 6.264-17.247 4.752-27.17-.793-5.21-2.391-10.768-5.613-15.024"/><path d="M26.44 139.503c-4.688-1.978-9.928-2.552-13.941-5.93-5.443-4.58-6.829-12.973-9.238-19.468-.213 5.606-.823 11.41-.143 16.988 1.312 10.777 8.286 17.299 18.2 20.521 8.797 2.86 16.727 4.886 21.665 13.45 1.96 3.399 3.557 7.037 5.3 10.55-1.662-9.502-3.199-18.07-9.47-25.907-3.292-4.115-7.455-8.13-12.373-10.204"/><path d="M71.019 175.105c-4.909-1.917-10.521-3.313-15.818-2.65-5.049.63-9.873 2.754-15.038 1.835-7.004-1.246-12.4-7.82-17.735-12.24 2.62 4.961 4.994 10.292 8.371 14.783 6.525 8.676 15.825 10.838 26.023 8.67 9.048-1.921 16.928-4.131 25.487.817 3.396 1.963 6.598 4.315 9.863 6.486-6.19-7.398-11.803-14.049-21.153-17.7"/><path d="M111.609 180.997c-5.21.794-10.768 2.392-15.024 5.614-4.057 3.071-7.173 7.322-12.105 9.109-6.689 2.423-14.65-.573-21.48-1.734 4.75 2.988 9.471 6.417 14.641 8.617 9.99 4.252 19.124 1.474 26.872-5.501 6.875-6.189 12.595-12.043 22.48-12.038 3.924.003 7.872.439 11.786.687-9.06-3.313-17.247-6.265-27.17-4.754"/><path d="M139.503 178.179c-1.978 4.688-2.551 9.928-5.93 13.94-4.58 5.443-12.973 6.83-19.468 9.24 5.607.212 11.41.821 16.988.142 10.777-1.312 17.299-8.286 20.521-18.2 2.86-8.798 4.886-16.727 13.45-21.665 3.399-1.96 7.037-3.557 10.55-5.3-9.502 1.662-18.069 3.199-25.907 9.47-4.115 3.292-8.13 7.455-10.204 12.373"/><path d="M175.105 133.6c-1.917 4.909-3.313 10.521-2.65 15.818.63 5.049 2.754 9.873 1.835 15.037-1.246 7.004-7.82 12.4-12.24 17.736 4.961-2.62 10.292-4.994 14.783-8.371 8.677-6.525 10.838-15.825 8.67-26.023-1.921-9.048-4.131-16.928.817-25.487 1.963-3.397 4.315-6.598 6.486-9.864-7.398 6.19-14.048 11.804-17.7 21.154"/><path d="M185.065 77.626c.002-3.924.438-7.873.686-11.786-3.313 9.06-6.265 17.246-4.753 27.17.794 5.21 2.391 10.768 5.613 15.024 3.071 4.057 7.322 7.173 9.109 12.105 2.423 6.689-.573 14.65-1.734 21.48 2.988-4.75 6.417-9.471 8.617-14.641 4.252-9.99 1.474-19.124-5.501-26.873-6.189-6.874-12.043-12.594-12.037-22.48"/><path d="M183.3 53.004c-8.797-2.859-16.726-4.885-21.664-13.45-1.96-3.398-3.557-7.036-5.3-10.549 1.662 9.502 3.199 18.068 9.47 25.907 3.292 4.115 7.455 8.13 12.373 10.204 4.688 1.978 9.928 2.551 13.941 5.93 5.443 4.58 6.829 12.972 9.239 19.468.212-5.607.821-11.411.142-16.988-1.312-10.777-8.286-17.299-18.201-20.522"/><path d="M147.797 19.115c-9.048 1.922-16.928 4.132-25.487-.816-3.397-1.964-6.598-4.315-9.864-6.486 6.19 7.398 11.804 14.048 21.154 17.7 4.91 1.918 10.521 3.314 15.818 2.651 5.05-.63 9.873-2.754 15.037-1.835 7.004 1.246 12.401 7.82 17.735 12.24-2.619-4.961-4.993-10.292-8.37-14.783-6.525-8.677-15.825-10.838-26.023-8.671"/></g></svg>