<?xml version="1.0" encoding="UTF-8"?>
<svg width="48px" height="41px" viewBox="0 0 48 41" version="1.1" xmlns="http://www.w3.org/2000/svg" xmlns:xlink="http://www.w3.org/1999/xlink">
    <!-- Generator: Sketch 41.2 (35397) - http://www.bohemiancoding.com/sketch -->
    <title>Page 1</title>
    <desc>Created with Sketch.</desc>
    <defs></defs>
    <g id="4.-Объект" stroke="none" stroke-width="1" fill="none" fill-rule="evenodd">
        <g id="Объекты-[Desktop-1600]" transform="translate(-1591.000000, -890.000000)" stroke="#FFFFFF" stroke-width="2">
            <g id="Page-1" transform="translate(1592.000000, 891.000000)">
                <path d="M0,34.0225 C0,31.4465 2,29.0005 5,29.0005 L5,0.0005 C2,0.0005 0,2.4235 0,5.0005 L0,34.0225 Z" id="Stroke-1" stroke-linejoin="round"></path>
                <path d="M5,6 L46,6 L46,39 L5.022,39 C2.249,39 0,36.704 0,34" id="Stroke-3" stroke-linejoin="round"></path>
                <polyline id="Stroke-5" points="23 19 23 27 12 27 12 12 23 12 23 16"></polyline>
                <polyline id="Stroke-7" points="23 12 39 12 39 22 35 22"></polyline>
                <polyline id="Stroke-9" points="31 22 35 22 35 33 19 33 19 27"></polyline>
                <path d="M28,22 L23,22" id="Stroke-11"></path>
            </g>
        </g>
    </g>
</svg>