<?xml version="1.0" encoding="UTF-8"?>
<svg width="180px" height="180px" viewBox="0 0 180 180" version="1.1" xmlns="http://www.w3.org/2000/svg" xmlns:xlink="http://www.w3.org/1999/xlink">
    <!-- Generator: Sketch 41.2 (35397) - http://www.bohemiancoding.com/sketch -->
    <title>Page 1</title>
    <desc>Created with Sketch.</desc>
    <defs></defs>
    <g id="4.-Объект" stroke="none" stroke-width="1" fill="none" fill-rule="evenodd" opacity="0.0531023551">
        <g id="Объекты-[Desktop-1600]" transform="translate(-200.000000, -1105.000000)">
            <g id="Page-1" transform="translate(200.000000, 1105.000000)">
                <path d="M77.028838,64.1958101 L64.190514,57.7758101 L64.190514,51.3568156 L77.028838,57.7768156 L89.8668268,51.3568156 L89.8668268,57.7758101 L77.028838,64.1958101 Z M102.705151,64.1958101 L89.8668268,57.7758101 L89.8668268,51.3568156 L102.705151,57.7768156 L115.54314,51.3568156 L115.54314,57.7758101 L102.705151,64.1958101 Z M38.6583352,57.8478771 L38.6583352,51.4288827 L51.3525251,57.7768156 L64.190514,51.3568156 L64.190514,57.7758101 L51.3525251,64.1958101 L38.6583352,57.8478771 Z M141.075318,51.4285475 L141.075318,57.8478771 L128.381128,64.1958101 L115.54314,57.7758101 L115.54314,51.3568156 L128.381128,57.7768156 L141.075318,51.4285475 Z" id="Fill-1" fill="#E8E8D9"></path>
                <path d="M77.028838,89.8741341 L64.190514,83.4541341 L64.190514,77.0351397 L77.028838,83.4551397 L89.8668268,77.0351397 L89.8668268,83.4541341 L77.028838,89.8741341 Z M102.705151,89.8741341 L89.8668268,83.4541341 L89.8668268,77.0351397 L102.705151,83.4551397 L115.54314,77.0351397 L115.54314,83.4541341 L102.705151,89.8741341 Z M38.6583352,83.5262011 L38.6583352,77.1072067 L51.3525251,83.4551397 L64.190514,77.0351397 L64.190514,83.4541341 L51.3525251,89.8741341 L38.6583352,83.5262011 Z M141.075318,77.1068715 L141.075318,83.5258659 L128.381128,89.8741341 L115.54314,83.4541341 L115.54314,77.0351397 L128.381128,83.4551397 L141.075318,77.1068715 Z" id="Fill-2" fill="#E8E8D9"></path>
                <path d="M77.028838,115.552425 L64.190514,109.132425 L64.190514,102.713095 L77.028838,109.13343 L89.8668268,102.713095 L89.8668268,109.132425 L77.028838,115.552425 Z M102.705151,115.552425 L89.8668268,109.132425 L89.8668268,102.713095 L102.705151,109.13343 L115.54314,102.713095 L115.54314,109.132425 L102.705151,115.552425 Z M38.6583352,109.204492 L38.6583352,102.785497 L51.3525251,109.13343 L64.190514,102.713095 L64.190514,109.132425 L51.3525251,115.552425 L38.6583352,109.204492 Z M141.075318,102.785162 L141.075318,109.204156 L128.381128,115.552425 L115.54314,109.132425 L115.54314,102.713095 L128.381128,109.13343 L141.075318,102.785162 Z" id="Fill-3" fill="#E8E8D9"></path>
                <path d="M51.6486034,141.082592 L51.0563128,141.082592 L38.6584358,134.88248 L38.6584358,128.463821 L51.3526257,134.811754 L64.1906145,128.391419 L64.1906145,134.810749 L51.6486034,141.082592 Z M77.3249162,141.082592 L76.7326257,141.082592 L64.1906145,134.810749 L64.1906145,128.391419 L77.0289385,134.811754 L89.8669274,128.391419 L89.8669274,134.810749 L77.3249162,141.082592 Z M103.001229,141.082592 L102.408939,141.082592 L89.8669274,134.810749 L89.8669274,128.391419 L102.704916,134.811754 L115.54324,128.391419 L115.54324,134.810749 L103.001229,141.082592 Z M141.075419,128.463486 L141.075419,134.88248 L128.677207,141.082592 L128.084916,141.082592 L115.54324,134.810749 L115.54324,128.391419 L128.381229,134.811754 L141.075419,128.463486 Z" id="Fill-4" fill="#E8E8D9"></path>
                <path d="M89.8669274,38.6656425 L90.162905,38.6656425 L102.704916,44.937486 L115.246927,38.6656425 L115.54324,38.6656425 L115.54324,44.9364804 L128.381229,51.3568156 L141.075419,45.0085475 L141.075419,38.6656425 L140.92324,38.6656425 L128.381229,44.937486 L115.839218,38.6656425 L115.54324,38.6656425 L115.54324,44.9364804 L102.704916,51.3568156 L89.8669274,44.9364804 L89.8669274,38.6656425 Z M38.6584358,38.6656425 L38.8106145,38.6656425 L51.3526257,44.937486 L63.8946369,38.6656425 L64.1906145,38.6656425 L64.1906145,44.9364804 L77.0289385,51.3568156 L89.8669274,44.9364804 L89.8669274,38.6656425 L89.5709497,38.6656425 L77.0289385,44.937486 L64.4865922,38.6656425 L64.1906145,38.6656425 L64.1906145,44.9364804 L51.3526257,51.3568156 L38.6584358,45.0085475 L38.6584358,38.6656425 Z" id="Fill-5" fill="#E8E8D9"></path>
                <path d="M77.028838,77.0350391 L64.190514,70.6150391 L64.190514,64.1957095 L77.028838,70.6160447 L89.8668268,64.1957095 L89.8668268,70.6150391 L77.028838,77.0350391 Z M102.705151,77.0350391 L89.8668268,70.6150391 L89.8668268,64.1957095 L102.705151,70.6160447 L115.54314,64.1957095 L115.54314,70.6150391 L102.705151,77.0350391 Z M38.6583352,70.6871061 L38.6583352,64.2677765 L51.3525251,70.6160447 L64.190514,64.1957095 L64.190514,70.6150391 L51.3525251,77.0350391 L38.6583352,70.6871061 Z M141.075318,64.2677765 L141.075318,70.6867709 L128.381128,77.0350391 L115.54314,70.6150391 L115.54314,64.1957095 L128.381128,70.6160447 L141.075318,64.2677765 Z" id="Fill-6" fill="#E8E8D9"></path>
                <path d="M77.028838,102.713196 L64.190514,96.2931955 L64.190514,89.8742011 L77.028838,96.2942011 L89.8668268,89.8742011 L89.8668268,96.2931955 L77.028838,102.713196 Z M102.705151,102.713196 L89.8668268,96.2931955 L89.8668268,89.8742011 L102.705151,96.2942011 L115.54314,89.8742011 L115.54314,96.2931955 L102.705151,102.713196 Z M38.6583352,96.3652626 L38.6583352,89.9462682 L51.3525251,96.2942011 L64.190514,89.8742011 L64.190514,96.2931955 L51.3525251,102.713196 L38.6583352,96.3652626 Z M141.075318,89.9462682 L141.075318,96.3652626 L128.381128,102.713196 L115.54314,96.2931955 L115.54314,89.8742011 L128.381128,96.2942011 L141.075318,89.9462682 Z" id="Fill-7" fill="#E8E8D9"></path>
                <path d="M77.028838,128.391486 L64.190514,121.971486 L64.190514,115.552492 L77.028838,121.972492 L89.8668268,115.552492 L89.8668268,121.971486 L77.028838,128.391486 Z M102.705151,128.391486 L89.8668268,121.971486 L89.8668268,115.552492 L102.705151,121.972492 L115.54314,115.552492 L115.54314,121.971486 L102.705151,128.391486 Z M38.6583352,122.043553 L38.6583352,115.624559 L51.3525251,121.972492 L64.190514,115.552492 L64.190514,121.971486 L51.3525251,128.391486 L38.6583352,122.043553 Z M141.075318,115.624559 L141.075318,122.043553 L128.381128,128.391486 L115.54314,121.971486 L115.54314,115.552492 L128.381128,121.972492 L141.075318,115.624559 Z" id="Fill-8" fill="#E8E8D9"></path>
                <path d="M166.895598,6.70391062e-05 L166.895598,6.41906145 L179.733587,12.8390615 L179.733587,6.42040223 L166.895598,6.70391062e-05 Z M166.895598,6.70391062e-05 L154.057609,6.42040223 L141.219285,6.70391062e-05 L141.219285,6.41906145 L154.057609,12.8390615 L166.895598,6.41906145 L166.895598,6.70391062e-05 Z M141.219285,6.70391062e-05 L128.381296,6.42040223 L115.542972,6.70391062e-05 L115.542972,6.41906145 L128.381296,12.8390615 L141.219285,6.41906145 L141.219285,6.70391062e-05 Z M115.542972,6.70391062e-05 L102.704983,6.42040223 L89.8669944,6.70391062e-05 L89.8669944,6.41906145 L102.704983,12.8390615 L115.542972,6.41906145 L115.542972,6.70391062e-05 Z M89.8669944,6.70391062e-05 L77.0286704,6.42040223 L64.1906816,6.70391062e-05 L64.1906816,6.41906145 L77.0286704,12.8390615 L89.8669944,6.41906145 L89.8669944,6.70391062e-05 Z M64.1906816,6.70391062e-05 L51.3523575,6.42040223 L38.5143687,6.70391062e-05 L38.5143687,6.41906145 L51.3523575,12.8390615 L64.1906816,6.41906145 L64.1906816,6.70391062e-05 Z M38.5143687,6.70391062e-05 L25.6763799,6.42040223 L12.8380559,6.70391062e-05 L12.8380559,6.41906145 L25.6763799,12.8390615 L38.5143687,6.41906145 L38.5143687,6.70391062e-05 Z M12.8380559,6.70391062e-05 L6.70391064e-05,6.42040223 L6.70391064e-05,12.8390615 L12.8380559,6.41906145 L12.8380559,6.70391062e-05 Z" id="Fill-9" fill="#000000"></path>
                <path d="M166.895598,32.097486 L179.733587,38.517486 L179.733587,32.0988268 L166.895598,25.6784916 L166.895598,32.097486 Z M154.057609,32.0988268 L141.219285,25.6784916 L141.219285,32.097486 L154.057609,38.517486 L166.895598,32.097486 L166.895598,25.6784916 L154.057609,32.0988268 Z M128.381296,32.0988268 L115.542972,25.6784916 L115.542972,32.097486 L128.381296,38.517486 L141.219285,32.097486 L141.219285,25.6784916 L128.381296,32.0988268 Z M102.704983,32.0988268 L89.8669944,25.6784916 L89.8669944,32.097486 L102.704983,38.517486 L115.542972,32.097486 L115.542972,25.6784916 L102.704983,32.0988268 Z M77.0286704,32.0988268 L64.1906816,25.6784916 L64.1906816,32.097486 L77.0286704,38.517486 L89.8669944,32.097486 L89.8669944,25.6784916 L77.0286704,32.0988268 Z M51.3523575,32.0988268 L38.5143687,25.6784916 L38.5143687,32.097486 L51.3523575,38.517486 L64.1906816,32.097486 L64.1906816,25.6784916 L51.3523575,32.0988268 Z M25.6763799,32.0988268 L12.8380559,25.6784916 L12.8380559,32.097486 L25.6763799,38.517486 L38.5143687,32.097486 L38.5143687,25.6784916 L25.6763799,32.0988268 Z M6.70391064e-05,32.0988268 L6.70391064e-05,38.517486 L12.8380559,32.097486 L12.8380559,25.6784916 L6.70391064e-05,32.0988268 Z" id="Fill-10" fill="#000000"></path>
                <path d="M166.895598,57.7758436 L179.733587,64.1958436 L179.733587,57.7768492 L166.895598,51.3568492 L166.895598,57.7758436 Z M154.057609,57.7768492 L141.219285,51.3568492 L141.219285,57.7758436 L154.057609,64.1958436 L166.895598,57.7758436 L166.895598,51.3568492 L154.057609,57.7768492 Z M141.075486,51.428581 L141.075486,57.8475754 L141.219285,57.7758436 L141.219285,51.3568492 L141.075486,51.428581 Z M38.5143687,57.7758436 L38.6585028,57.8475754 L38.6585028,51.4289162 L38.5143687,51.3568492 L38.5143687,57.7758436 Z M25.6763799,57.7768492 L12.8380559,51.3568492 L12.8380559,57.7758436 L25.6763799,64.1958436 L38.5143687,57.7758436 L38.5143687,51.3568492 L25.6763799,57.7768492 Z M6.70391064e-05,57.7768492 L6.70391064e-05,64.1958436 L12.8380559,57.7758436 L12.8380559,51.3568492 L6.70391064e-05,57.7768492 Z" id="Fill-11" fill="#000000"></path>
                <path d="M166.895598,83.4538994 L179.733587,89.8742346 L179.733587,83.4552402 L166.895598,77.0352402 L166.895598,83.4538994 Z M154.057609,83.4552402 L141.219285,77.0352402 L141.219285,83.4538994 L154.057609,89.8742346 L166.895598,83.4538994 L166.895598,77.0352402 L154.057609,83.4552402 Z M141.075486,77.1069721 L141.075486,83.5259665 L141.219285,83.4538994 L141.219285,77.0352402 L141.075486,77.1069721 Z M38.5143687,83.4538994 L38.6585028,83.5259665 L38.6585028,77.1069721 L38.5143687,77.0352402 L38.5143687,83.4538994 Z M25.6763799,83.4552402 L12.8380559,77.0352402 L12.8380559,83.4538994 L25.6763799,89.8742346 L38.5143687,83.4538994 L38.5143687,77.0352402 L25.6763799,83.4552402 Z M6.70391064e-05,83.4552402 L6.70391064e-05,89.8742346 L12.8380559,83.4538994 L12.8380559,77.0352402 L6.70391064e-05,83.4552402 Z" id="Fill-12" fill="#000000"></path>
                <path d="M166.895598,109.132257 L179.733587,115.552592 L179.733587,109.133263 L166.895598,102.713263 L166.895598,109.132257 Z M154.057609,109.133263 L141.219285,102.713263 L141.219285,109.132257 L154.057609,115.552592 L166.895598,109.132257 L166.895598,102.713263 L154.057609,109.133263 Z M141.075486,102.78533 L141.075486,109.203989 L141.219285,109.132257 L141.219285,102.713263 L141.075486,102.78533 Z M38.5143687,109.132257 L38.6585028,109.204324 L38.6585028,102.78533 L38.5143687,102.713263 L38.5143687,109.132257 Z M25.6763799,109.133263 L12.8380559,102.713263 L12.8380559,109.132257 L25.6763799,115.552592 L38.5143687,109.132257 L38.5143687,102.713263 L25.6763799,109.133263 Z M6.70391064e-05,109.133263 L6.70391064e-05,115.552592 L12.8380559,109.132257 L12.8380559,102.713263 L6.70391064e-05,109.133263 Z" id="Fill-13" fill="#000000"></path>
                <path d="M166.895598,134.810615 L179.733587,141.230615 L179.733587,134.81162 L166.895598,128.39162 L166.895598,134.810615 Z M154.057609,134.81162 L141.219285,128.39162 L141.219285,134.810615 L154.057609,141.230615 L166.895598,134.810615 L166.895598,128.39162 L154.057609,134.81162 Z M141.075486,128.463687 L141.075486,134.882346 L141.219285,134.810615 L141.219285,128.39162 L141.075486,128.463687 Z M38.5143687,134.810615 L38.6585028,134.882682 L38.6585028,128.463687 L38.5143687,128.39162 L38.5143687,134.810615 Z M25.6763799,134.81162 L12.8380559,128.39162 L12.8380559,134.810615 L25.6763799,141.230615 L38.5143687,134.810615 L38.5143687,128.39162 L25.6763799,134.81162 Z M6.70391064e-05,134.81162 L6.70391064e-05,141.230615 L12.8380559,134.810615 L12.8380559,128.39162 L6.70391064e-05,134.81162 Z M128.084983,141.082458 L128.381296,141.230615 L128.677274,141.082458 L128.084983,141.082458 Z M102.40867,141.082458 L102.704983,141.230615 L103.001296,141.082458 L102.40867,141.082458 Z M76.7323575,141.082458 L77.0286704,141.230615 L77.3249832,141.082458 L76.7323575,141.082458 Z M51.0563799,141.082458 L51.3523575,141.230615 L51.6486704,141.082458 L51.0563799,141.082458 Z" id="Fill-14" fill="#000000"></path>
                <path d="M166.895598,160.488972 L179.733587,166.908972 L179.733587,160.489978 L166.895598,154.069978 L166.895598,160.488972 Z M154.057609,160.489978 L141.219285,154.069978 L141.219285,160.488972 L154.057609,166.908972 L166.895598,160.488972 L166.895598,154.069978 L154.057609,160.489978 Z M128.381296,160.489978 L115.542972,154.069978 L115.542972,160.488972 L128.381296,166.908972 L141.219285,160.488972 L141.219285,154.069978 L128.381296,160.489978 Z M102.704983,160.489978 L89.8669944,154.069978 L89.8669944,160.488972 L102.704983,166.908972 L115.542972,160.488972 L115.542972,154.069978 L102.704983,160.489978 Z M77.0286704,160.489978 L64.1906816,154.069978 L64.1906816,160.488972 L77.0286704,166.908972 L89.8669944,160.488972 L89.8669944,154.069978 L77.0286704,160.489978 Z M51.3523575,160.489978 L38.5143687,154.069978 L38.5143687,160.488972 L51.3523575,166.908972 L64.1906816,160.488972 L64.1906816,154.069978 L51.3523575,160.489978 Z M25.6763799,160.489978 L12.8380559,154.069978 L12.8380559,160.488972 L25.6763799,166.908972 L38.5143687,160.488972 L38.5143687,154.069978 L25.6763799,160.489978 Z M6.70391064e-05,160.489978 L6.70391064e-05,166.908972 L12.8380559,160.488972 L12.8380559,154.069978 L6.70391064e-05,160.489978 Z" id="Fill-15" fill="#000000"></path>
                <path d="M166.895598,19.2584581 L179.733587,25.6784581 L179.733587,19.2594637 L166.895598,12.8391285 L166.895598,19.2584581 Z M154.057609,19.2594637 L141.219285,12.8391285 L141.219285,19.2584581 L154.057609,25.6784581 L166.895598,19.2584581 L166.895598,12.8391285 L154.057609,19.2594637 Z M128.381296,19.2594637 L115.542972,12.8391285 L115.542972,19.2584581 L128.381296,25.6784581 L141.219285,19.2584581 L141.219285,12.8391285 L128.381296,19.2594637 Z M102.704983,19.2594637 L89.8669944,12.8391285 L89.8669944,19.2584581 L102.704983,25.6784581 L115.542972,19.2584581 L115.542972,12.8391285 L102.704983,19.2594637 Z M77.0286704,19.2594637 L64.1906816,12.8391285 L64.1906816,19.2584581 L77.0286704,25.6784581 L89.8669944,19.2584581 L89.8669944,12.8391285 L77.0286704,19.2594637 Z M51.3523575,19.2594637 L38.5143687,12.8391285 L38.5143687,19.2584581 L51.3523575,25.6784581 L64.1906816,19.2584581 L64.1906816,12.8391285 L51.3523575,19.2594637 Z M25.6763799,19.2594637 L12.8380559,12.8391285 L12.8380559,19.2584581 L25.6763799,25.6784581 L38.5143687,19.2584581 L38.5143687,12.8391285 L25.6763799,19.2594637 Z M6.70391064e-05,19.2594637 L6.70391064e-05,25.6784581 L12.8380559,19.2584581 L12.8380559,12.8391285 L6.70391064e-05,19.2594637 Z" id="Fill-16" fill="#000000"></path>
                <path d="M166.895598,44.936514 L179.733587,51.3568492 L179.733587,44.9378547 L166.895598,38.5175196 L166.895598,44.936514 Z M154.057609,44.9378547 L141.219285,38.5175196 L141.219285,44.936514 L154.057609,51.3568492 L166.895598,44.936514 L166.895598,38.5175196 L154.057609,44.9378547 Z M140.922972,38.665676 L141.075486,38.665676 L141.075486,45.008581 L141.219285,44.936514 L141.219285,38.5175196 L140.922972,38.665676 Z M115.542972,38.665676 L115.83895,38.665676 L115.542972,38.5175196 L115.542972,38.665676 Z M115.246994,38.665676 L115.542972,38.665676 L115.542972,38.5175196 L115.246994,38.665676 Z M89.8669944,38.665676 L90.1629721,38.665676 L89.8669944,38.5175196 L89.8669944,38.665676 Z M89.5710168,38.665676 L89.8669944,38.665676 L89.8669944,38.5175196 L89.5710168,38.665676 Z M64.1906816,38.665676 L64.4866592,38.665676 L64.1906816,38.5175196 L64.1906816,38.665676 Z M63.8943687,38.665676 L64.1906816,38.665676 L64.1906816,38.5175196 L63.8943687,38.665676 Z M38.5143687,44.936514 L38.6585028,45.008581 L38.6585028,38.665676 L38.8106816,38.665676 L38.5143687,38.5175196 L38.5143687,44.936514 Z M25.6763799,44.9378547 L12.8380559,38.5175196 L12.8380559,44.936514 L25.6763799,51.3568492 L38.5143687,44.936514 L38.5143687,38.5175196 L25.6763799,44.9378547 Z M6.70391064e-05,44.9378547 L6.70391064e-05,51.3568492 L12.8380559,44.936514 L12.8380559,38.5175196 L6.70391064e-05,44.9378547 Z" id="Fill-17" fill="#000000"></path>
                <path d="M166.895598,70.6148715 L179.733587,77.0352067 L179.733587,70.6162123 L166.895598,64.1958771 L166.895598,70.6148715 Z M154.057609,70.6162123 L141.219285,64.1958771 L141.219285,70.6148715 L154.057609,77.0352067 L166.895598,70.6148715 L166.895598,64.1958771 L154.057609,70.6162123 Z M141.075486,64.2679441 L141.075486,70.6866034 L141.219285,70.6148715 L141.219285,64.1958771 L141.075486,64.2679441 Z M38.5143687,70.6148715 L38.6585028,70.6869385 L38.6585028,64.2679441 L38.5143687,64.1958771 L38.5143687,70.6148715 Z M25.6763799,70.6162123 L12.8380559,64.1958771 L12.8380559,70.6148715 L25.6763799,77.0352067 L38.5143687,70.6148715 L38.5143687,64.1958771 L25.6763799,70.6162123 Z M6.70391064e-05,70.6162123 L6.70391064e-05,77.0352067 L12.8380559,70.6148715 L12.8380559,64.1958771 L6.70391064e-05,70.6162123 Z" id="Fill-18" fill="#000000"></path>
                <path d="M166.895598,96.2932291 L179.733587,102.713229 L179.733587,96.2942346 L166.895598,89.8742346 L166.895598,96.2932291 Z M154.057609,96.2942346 L141.219285,89.8742346 L141.219285,96.2932291 L154.057609,102.713229 L166.895598,96.2932291 L166.895598,89.8742346 L154.057609,96.2942346 Z M141.075486,89.9463017 L141.075486,96.3649609 L141.219285,96.2932291 L141.219285,89.8742346 L141.075486,89.9463017 Z M38.5143687,96.2932291 L38.6585028,96.3649609 L38.6585028,89.9463017 L38.5143687,89.8742346 L38.5143687,96.2932291 Z M25.6763799,96.2942346 L12.8380559,89.8742346 L12.8380559,96.2932291 L25.6763799,102.713229 L38.5143687,96.2932291 L38.5143687,89.8742346 L25.6763799,96.2942346 Z M6.70391064e-05,96.2942346 L6.70391064e-05,102.713229 L12.8380559,96.2932291 L12.8380559,89.8742346 L6.70391064e-05,96.2942346 Z" id="Fill-19" fill="#000000"></path>
                <path d="M166.895598,121.971285 L179.733587,128.39162 L179.733587,121.972626 L166.895598,115.552626 L166.895598,121.971285 Z M154.057609,121.972626 L141.219285,115.552626 L141.219285,121.971285 L154.057609,128.39162 L166.895598,121.971285 L166.895598,115.552626 L154.057609,121.972626 Z M141.075486,115.624358 L141.075486,122.043352 L141.219285,121.971285 L141.219285,115.552626 L141.075486,115.624358 Z M38.5143687,121.971285 L38.6585028,122.043352 L38.6585028,115.624358 L38.5143687,115.552626 L38.5143687,121.971285 Z M25.6763799,121.972626 L12.8380559,115.552626 L12.8380559,121.971285 L25.6763799,128.39162 L38.5143687,121.971285 L38.5143687,115.552626 L25.6763799,121.972626 Z M6.70391064e-05,121.972626 L6.70391064e-05,128.39162 L12.8380559,121.971285 L12.8380559,115.552626 L6.70391064e-05,121.972626 Z" id="Fill-20" fill="#000000"></path>
                <path d="M166.895598,147.649944 L179.733587,154.069944 L179.733587,147.650615 L166.895598,141.230615 L166.895598,147.649944 Z M154.057609,147.650615 L141.219285,141.230615 L141.219285,147.649944 L154.057609,154.069944 L166.895598,147.649944 L166.895598,141.230615 L154.057609,147.650615 Z M128.381296,147.650615 L115.542972,141.230615 L115.542972,147.649944 L128.381296,154.069944 L141.219285,147.649944 L141.219285,141.230615 L128.381296,147.650615 Z M102.704983,147.650615 L89.8669944,141.230615 L89.8669944,147.649944 L102.704983,154.069944 L115.542972,147.649944 L115.542972,141.230615 L102.704983,147.650615 Z M77.0286704,147.650615 L64.1906816,141.230615 L64.1906816,147.649944 L77.0286704,154.069944 L89.8669944,147.649944 L89.8669944,141.230615 L77.0286704,147.650615 Z M51.3523575,147.650615 L38.5143687,141.230615 L38.5143687,147.649944 L51.3523575,154.069944 L64.1906816,147.649944 L64.1906816,141.230615 L51.3523575,147.650615 Z M25.6763799,147.650615 L12.8380559,141.230615 L12.8380559,147.649944 L25.6763799,154.069944 L38.5143687,147.649944 L38.5143687,141.230615 L25.6763799,147.650615 Z M6.70391064e-05,147.650615 L6.70391064e-05,154.069944 L12.8380559,147.649944 L12.8380559,141.230615 L6.70391064e-05,147.650615 Z" id="Fill-21" fill="#000000"></path>
                <path d="M166.895598,173.328302 L179.733587,179.748302 L179.733587,173.329307 L166.895598,166.908972 L166.895598,173.328302 Z M154.057609,173.329307 L141.219285,166.908972 L141.219285,173.328302 L154.057609,179.748302 L166.895598,173.328302 L166.895598,166.908972 L154.057609,173.329307 Z M128.381296,173.329307 L115.542972,166.908972 L115.542972,173.328302 L128.381296,179.748302 L141.219285,173.328302 L141.219285,166.908972 L128.381296,173.329307 Z M102.704983,173.329307 L89.8669944,166.908972 L89.8669944,173.328302 L102.704983,179.748302 L115.542972,173.328302 L115.542972,166.908972 L102.704983,173.329307 Z M77.0286704,173.329307 L64.1906816,166.908972 L64.1906816,173.328302 L77.0286704,179.748302 L89.8669944,173.328302 L89.8669944,166.908972 L77.0286704,173.329307 Z M51.3523575,173.329307 L38.5143687,166.908972 L38.5143687,173.328302 L51.3523575,179.748302 L64.1906816,173.328302 L64.1906816,166.908972 L51.3523575,173.329307 Z M25.6763799,173.329307 L12.8380559,166.908972 L12.8380559,173.328302 L25.6763799,179.748302 L38.5143687,173.328302 L38.5143687,166.908972 L25.6763799,173.329307 Z M6.70391064e-05,173.329307 L6.70391064e-05,179.748302 L12.8380559,173.328302 L12.8380559,166.908972 L6.70391064e-05,173.329307 Z" id="Fill-22" fill="#000000"></path>
            </g>
        </g>
    </g>
</svg>