<svg width="180" height="180" viewBox="0 0 180 180" xmlns="http://www.w3.org/2000/svg"><title>Page 1</title><g fill="none" fill-rule="evenodd" opacity=".053"><path d="M77.029 64.196l-12.838-6.42v-6.42l12.838 6.42 12.838-6.42v6.42l-12.838 6.42zm25.676 0l-12.838-6.42v-6.42l12.838 6.42 12.838-6.42v6.42l-12.838 6.42zm-64.047-6.348v-6.42l12.695 6.349 12.838-6.42v6.419l-12.838 6.42-12.695-6.348zm102.417-6.42v6.42l-12.694 6.348-12.838-6.42v-6.42l12.838 6.42 12.694-6.347zM77.029 89.874l-12.838-6.42v-6.419l12.838 6.42 12.838-6.42v6.42l-12.838 6.42zm25.676 0l-12.838-6.42v-6.419l12.838 6.42 12.838-6.42v6.42l-12.838 6.42zm-64.047-6.348v-6.419l12.695 6.348 12.838-6.42v6.42l-12.838 6.42-12.695-6.349zm102.417-6.42v6.42l-12.694 6.348-12.838-6.42v-6.419l12.838 6.42 12.694-6.348zm-64.046 38.446l-12.838-6.42v-6.419l12.838 6.42 12.838-6.42v6.42l-12.838 6.42zm25.676 0l-12.838-6.42v-6.419l12.838 6.42 12.838-6.42v6.42l-12.838 6.42zm-64.047-6.348v-6.419l12.695 6.348 12.838-6.42v6.42l-12.838 6.42-12.695-6.349zm102.417-6.419v6.42l-12.694 6.347-12.838-6.42v-6.419l12.838 6.42 12.694-6.348zm-89.426 38.298h-.593l-12.398-6.2v-6.42l12.695 6.349 12.838-6.42v6.419l-12.542 6.272zm25.676 0h-.592L64.19 134.81v-6.42l12.838 6.42 12.838-6.42v6.42l-12.542 6.272zm25.676 0h-.592l-12.542-6.272v-6.42l12.838 6.42 12.838-6.42v6.42l-12.542 6.272zm38.074-12.62v6.42l-12.398 6.2h-.592l-12.542-6.272v-6.42l12.838 6.42 12.694-6.348zM89.867 38.666h.296l12.542 6.271 12.542-6.271h.296v6.27l12.838 6.42 12.694-6.347v-6.343h-.152l-12.542 6.271-12.542-6.271h-.296v6.27l-12.838 6.42-12.838-6.42v-6.27zm-51.209 0h.153l12.542 6.271 12.542-6.271h.296v6.27l12.838 6.42 12.838-6.42v-6.27h-.296l-12.542 6.271-12.542-6.271h-.296v6.27l-12.838 6.42-12.695-6.347v-6.343z" fill="#E8E8D9"/><path d="M77.029 77.035l-12.838-6.42v-6.42l12.838 6.421 12.838-6.42v6.419l-12.838 6.42zm25.676 0l-12.838-6.42v-6.42l12.838 6.421 12.838-6.42v6.419l-12.838 6.42zm-64.047-6.348v-6.42l12.695 6.349 12.838-6.42v6.419l-12.838 6.42-12.695-6.348zm102.417-6.42v6.42l-12.694 6.348-12.838-6.42v-6.42l12.838 6.421 12.694-6.348zm-64.046 38.446l-12.838-6.42v-6.419l12.838 6.42 12.838-6.42v6.42l-12.838 6.42zm25.676 0l-12.838-6.42v-6.419l12.838 6.42 12.838-6.42v6.42l-12.838 6.42zm-64.047-6.348v-6.419l12.695 6.348 12.838-6.42v6.42l-12.838 6.42-12.695-6.349zm102.417-6.419v6.42l-12.694 6.347-12.838-6.42v-6.419l12.838 6.42 12.694-6.348zm-64.046 38.445l-12.838-6.42v-6.419l12.838 6.42 12.838-6.42v6.42l-12.838 6.42zm25.676 0l-12.838-6.42v-6.419l12.838 6.42 12.838-6.42v6.42l-12.838 6.42zm-64.047-6.347v-6.42l12.695 6.348 12.838-6.42v6.42l-12.838 6.42-12.695-6.348zm102.417-6.42v6.42l-12.694 6.347-12.838-6.42v-6.419l12.838 6.42 12.694-6.347z" fill="#E8E8D9"/><path d="M166.896 0v6.42l12.838 6.42V6.42L166.896 0zm0 0l-12.838 6.42L141.219 0v6.42l12.839 6.42 12.838-6.42V0zm-25.677 0l-12.838 6.42L115.543 0v6.42l12.838 6.42 12.838-6.42V0zm-25.676 0l-12.838 6.42L89.867 0v6.42l12.838 6.42 12.838-6.42V0zM89.867 0L77.029 6.42 64.19 0v6.42l12.838 6.42 12.838-6.42V0zM64.191 0L51.352 6.42 38.514 0v6.42l12.838 6.42 12.839-6.42V0zM38.514 0L25.676 6.42 12.838 0v6.42l12.838 6.42 12.838-6.42V0zM12.838 0L0 6.42v6.42l12.838-6.42V0zm154.058 32.097l12.838 6.42V32.1l-12.838-6.42v6.418zm-12.838.002l-12.839-6.42v6.418l12.839 6.42 12.838-6.42v-6.419l-12.838 6.42zm-25.677 0l-12.838-6.42v6.418l12.838 6.42 12.838-6.42v-6.419l-12.838 6.42zm-25.676 0l-12.838-6.42v6.418l12.838 6.42 12.838-6.42v-6.419l-12.838 6.42zm-25.676 0l-12.838-6.42v6.418l12.838 6.42 12.838-6.42v-6.419l-12.838 6.42zm-25.677 0l-12.838-6.42v6.418l12.838 6.42 12.839-6.42v-6.419l-12.839 6.42zm-25.676 0l-12.838-6.42v6.418l12.838 6.42 12.838-6.42v-6.419l-12.838 6.42zM0 32.099v6.418l12.838-6.42v-6.419L0 32.098zm166.896 25.677l12.838 6.42v-6.42l-12.838-6.42v6.42zm-12.838 0l-12.839-6.42v6.42l12.839 6.42 12.838-6.42v-6.42l-12.838 6.42zm-12.983-6.347v6.419l.144-.072v-6.42l-.144.073zm-102.56 6.347l.144.072v-6.42l-.145-.071v6.419zm-12.839 0l-12.838-6.42v6.42l12.838 6.42 12.838-6.42v-6.42l-12.838 6.42zM0 57.777v6.42l12.838-6.42v-6.42L0 57.777zm166.896 25.677l12.838 6.42v-6.419l-12.838-6.42v6.419zm-12.838.001l-12.839-6.42v6.419l12.839 6.42 12.838-6.42v-6.419l-12.838 6.42zm-12.983-6.348v6.419l.144-.072v-6.419l-.144.072zm-102.56 6.347l.144.072v-6.419l-.145-.072v6.419zm-12.839.001l-12.838-6.42v6.419l12.838 6.42 12.838-6.42v-6.419l-12.838 6.42zM0 83.455v6.42l12.838-6.421v-6.419L0 83.455zm166.896 25.677l12.838 6.42v-6.419l-12.838-6.42v6.42zm-12.838.001l-12.839-6.42v6.42l12.839 6.42 12.838-6.42v-6.42l-12.838 6.42zm-12.983-6.348v6.419l.144-.072v-6.419l-.144.072zm-102.56 6.347l.144.072v-6.419l-.145-.072v6.42zm-12.839.001l-12.838-6.42v6.42l12.838 6.42 12.838-6.42v-6.42l-12.838 6.42zm-25.676 0v6.42l12.838-6.42v-6.42L0 109.133zm166.896 25.677l12.838 6.42v-6.418l-12.838-6.42v6.419zm-12.838.002l-12.839-6.42v6.419l12.839 6.42 12.838-6.42v-6.42l-12.838 6.42zm-12.983-6.348v6.418l.144-.071v-6.42l-.144.073zm-102.56 6.347l.144.072v-6.42l-.145-.071v6.419zm-12.839 0l-12.838-6.42v6.42l12.838 6.42 12.838-6.42v-6.42l-12.838 6.42zm-25.676 0v6.42l12.838-6.42v-6.42L0 134.812zm128.085 6.271l.296.149.296-.149h-.592zm-25.676 0l.296.149.296-.149h-.592zm-25.677 0l.297.149.296-.149h-.593zm-25.676 0l.296.149.297-.149h-.593zm115.84 19.407l12.838 6.42v-6.419l-12.838-6.42v6.419zm-12.838.001l-12.839-6.42v6.419l12.839 6.42 12.838-6.42v-6.419l-12.838 6.42zm-25.677 0l-12.838-6.42v6.419l12.838 6.42 12.838-6.42v-6.419l-12.838 6.42zm-25.676 0l-12.838-6.42v6.419l12.838 6.42 12.838-6.42v-6.419l-12.838 6.42zm-25.676 0l-12.838-6.42v6.419l12.838 6.42 12.838-6.42v-6.419l-12.838 6.42zm-25.677 0l-12.838-6.42v6.419l12.838 6.42 12.839-6.42v-6.419l-12.839 6.42zm-25.676 0l-12.838-6.42v6.419l12.838 6.42 12.838-6.42v-6.419l-12.838 6.42zM0 160.49v6.419l12.838-6.42v-6.419L0 160.49z" fill="#000"/><path d="M166.896 19.258l12.838 6.42V19.26l-12.838-6.42v6.42zm-12.838.001l-12.839-6.42v6.42l12.839 6.42 12.838-6.42v-6.42l-12.838 6.42zm-25.677 0l-12.838-6.42v6.42l12.838 6.42 12.838-6.42v-6.42l-12.838 6.42zm-25.676 0l-12.838-6.42v6.42l12.838 6.42 12.838-6.42v-6.42l-12.838 6.42zm-25.676 0L64.19 12.84v6.42l12.838 6.42 12.838-6.42v-6.42l-12.838 6.42zm-25.677 0l-12.838-6.42v6.42l12.838 6.42 12.839-6.42v-6.42l-12.839 6.42zm-25.676 0l-12.838-6.42v6.42l12.838 6.42 12.838-6.42v-6.42l-12.838 6.42zM0 19.26v6.42l12.838-6.42v-6.42L0 19.26zm166.896 25.677l12.838 6.42v-6.42l-12.838-6.42v6.42zm-12.838 0l-12.839-6.42v6.42l12.839 6.42 12.838-6.42v-6.42l-12.838 6.42zm-13.135-6.271h.152v6.343l.144-.072v-6.42l-.296.149zm-25.38 0h.296l-.296-.148v.148zm-.296 0h.296v-.148l-.296.148zm-25.38 0h.296l-.296-.148v.148zm-.296 0h.296v-.148l-.296.148zm-25.38 0h.296l-.296-.148v.148zm-.297 0h.297v-.148l-.297.148zm-25.38 6.27l.145.073v-6.343h.152l-.297-.148v6.419zm-12.838.002l-12.838-6.42v6.419l12.838 6.42 12.838-6.42v-6.42l-12.838 6.42zM0 44.938v6.419l12.838-6.42v-6.42L0 44.938zm166.896 25.677l12.838 6.42v-6.419l-12.838-6.42v6.419zm-12.838.001l-12.839-6.42v6.419l12.839 6.42 12.838-6.42v-6.42l-12.838 6.421zm-12.983-6.348v6.419l.144-.072v-6.42l-.144.073zm-102.56 6.347l.144.072v-6.42l-.145-.071v6.419zm-12.839.001l-12.838-6.42v6.419l12.838 6.42 12.838-6.42v-6.42l-12.838 6.421zM0 70.616v6.42l12.838-6.421v-6.42L0 70.617zm166.896 25.677l12.838 6.42v-6.419l-12.838-6.42v6.42zm-12.838.001l-12.839-6.42v6.42l12.839 6.42 12.838-6.42v-6.42l-12.838 6.42zm-12.983-6.348v6.419l.144-.072v-6.419l-.144.072zm-102.56 6.347l.144.072v-6.419l-.145-.072v6.42zm-12.839.001l-12.838-6.42v6.42l12.838 6.42 12.838-6.42v-6.42l-12.838 6.42zM0 96.294v6.42l12.838-6.42v-6.42L0 96.294zm166.896 25.677l12.838 6.42v-6.418l-12.838-6.42v6.418zm-12.838.002l-12.839-6.42v6.418l12.839 6.42 12.838-6.42v-6.418l-12.838 6.42zm-12.983-6.349v6.42l.144-.073v-6.418l-.144.071zm-102.56 6.347l.144.072v-6.419l-.145-.071v6.418zm-12.839.002l-12.838-6.42v6.418l12.838 6.42 12.838-6.42v-6.418l-12.838 6.42zm-25.676 0v6.419l12.838-6.42v-6.42L0 121.973zm166.896 25.677l12.838 6.42v-6.42l-12.838-6.42v6.42zm-12.838 0l-12.839-6.42v6.42l12.839 6.42 12.838-6.42v-6.42l-12.838 6.42zm-25.677 0l-12.838-6.42v6.42l12.838 6.42 12.838-6.42v-6.42l-12.838 6.42zm-25.676 0l-12.838-6.42v6.42l12.838 6.42 12.838-6.42v-6.42l-12.838 6.42zm-25.676 0l-12.838-6.42v6.42l12.838 6.42 12.838-6.42v-6.42l-12.838 6.42zm-25.677 0l-12.838-6.42v6.42l12.838 6.42 12.839-6.42v-6.42l-12.839 6.42zm-25.676 0l-12.838-6.42v6.42l12.838 6.42 12.838-6.42v-6.42l-12.838 6.42zM0 147.65v6.42l12.838-6.42v-6.42L0 147.65zm166.896 25.678l12.838 6.42v-6.419l-12.838-6.42v6.42zm-12.838.001l-12.839-6.42v6.42l12.839 6.42 12.838-6.42v-6.42l-12.838 6.42zm-25.677 0l-12.838-6.42v6.42l12.838 6.42 12.838-6.42v-6.42l-12.838 6.42zm-25.676 0l-12.838-6.42v6.42l12.838 6.42 12.838-6.42v-6.42l-12.838 6.42zm-25.676 0l-12.838-6.42v6.42l12.838 6.42 12.838-6.42v-6.42l-12.838 6.42zm-25.677 0l-12.838-6.42v6.42l12.838 6.42 12.839-6.42v-6.42l-12.839 6.42zm-25.676 0l-12.838-6.42v6.42l12.838 6.42 12.838-6.42v-6.42l-12.838 6.42zM0 173.33v6.42l12.838-6.42v-6.42L0 173.329z" fill="#000"/></g></svg>