<svg width="24" height="27" viewBox="0 0 24 27" xmlns="http://www.w3.org/2000/svg"><title>Page 1</title><g fill="#FFF" fill-rule="evenodd"><path d="M5.174 13.557h2.71v-2.405h-2.71zm5.339 0h2.71v-2.405h-2.71zm5.339 0h2.71v-2.405h-2.71zM5.174 17.686h2.71v-2.405h-2.71zm5.339 0h2.71v-2.405h-2.71zm5.339 0h2.71v-2.405h-2.71zM5.174 21.815h2.71V19.41h-2.71zm5.339 0h2.71V19.41h-2.71zm5.339 0h2.71V19.41h-2.71z"/><path d="M15.58 0v1.672H8.155V0H6.07v1.672H0v24.67h23.734V1.671h-6.07V0H15.58zm2.085 5.011V3.756h3.986V7.38H2.084V3.756h3.987v1.255h2.084V3.756h7.425v1.255h2.085zM2.084 24.258h19.568V9.464H2.084v14.794z"/></g></svg>