<svg width="24" height="20" viewBox="0 0 24 20" xmlns="http://www.w3.org/2000/svg"><title>Page 1</title><path d="M20.582 18.271l-1.034-1.034.158-.245a8.965 8.965 0 0 0 1.217-2.846l.093-.4.013-.06h1.47c1.228 0 1.47.006 1.47.037 0 .094-.117.703-.209 1.08a12.02 12.02 0 0 1-1.49 3.572c-.193.31-.597.895-.635.918-.01.007-.485-.453-1.053-1.022M0 10.278a15 15 0 0 0 .065-.374c.242-1.46.83-3.005 1.647-4.322.22-.354.552-.827.58-.827.01 0 .486.467 1.056 1.038L4.386 6.83l-.043.072c-.024.04-.122.202-.22.36A9.604 9.604 0 0 0 3.22 9.26c-.065.215-.193.717-.254 1.005l-.013.059H1.472c-1.397 0-1.48-.003-1.471-.046m21.015-.013c-.273-1.275-.662-2.24-1.31-3.247l-.158-.245L20.6 5.722l1.05-1.052.212.299c1.035 1.459 1.773 3.23 2.055 4.934l.064.374c.01.043-.074.046-1.471.046h-1.481l-.013-.06zM5.703 3.392L4.655 2.344l.141-.103A12.056 12.056 0 0 1 9.166.209c.4-.096.988-.209 1.095-.209.047 0 .049.052.049 1.484v1.483l-.06.013c-.287.062-.79.19-1.004.255a9.584 9.584 0 0 0-2.279 1.078 1.932 1.932 0 0 1-.184.114c-.018.008-.487-.442-1.08-1.035zm11.135.81a9.738 9.738 0 0 0-2.102-.967 16.334 16.334 0 0 0-1.005-.255l-.059-.013V1.484c0-1.432.002-1.484.05-1.484.106 0 .694.113 1.093.21 1.517.367 2.866.975 4.132 1.86l.322.227-1.045 1.045c-.574.575-1.056 1.045-1.07 1.044-.015 0-.157-.083-.316-.184" fill="#FFF" fill-rule="evenodd"/></svg>