<svg width="140" height="140" viewBox="0 0 140 140" xmlns="http://www.w3.org/2000/svg"><title>Page 1</title><g fill="#595959" fill-rule="evenodd"><path d="M68.365 5.133c-4.695 4.227-8.601 8.225-15.352 8.221-2.68-.001-5.376-.3-8.05-.468 6.188 2.262 11.779 4.278 18.556 3.246 3.558-.543 7.354-1.633 10.26-3.834 2.771-2.098 4.9-5 8.267-6.22 4.568-1.655 10.005.39 14.669 1.183-3.243-2.04-6.468-4.382-9.999-5.885C79.894-1.527 73.656.37 68.365 5.133"/><path d="M50.213 2.13c-7.36.896-11.814 5.658-14.015 12.43-1.952 6.007-3.337 11.422-9.185 14.794-2.321 1.339-4.805 2.43-7.204 3.62 6.489-1.135 12.339-2.185 17.692-6.468 2.81-2.248 5.552-5.09 6.969-8.45 1.35-3.201 1.742-6.78 4.049-9.52 3.128-3.717 8.86-4.664 13.295-6.31-3.829-.144-7.792-.56-11.601-.097"/><path d="M29.072 15.317c-3.388 1.789-7.03 3.41-10.096 5.716-5.926 4.457-7.402 10.807-5.922 17.772 1.313 6.18 2.822 11.561-.557 17.406-1.341 2.32-2.947 4.506-4.43 6.736 5.052-4.227 9.594-8.06 12.089-14.446 1.31-3.353 2.262-7.185 1.81-10.803-.431-3.448-1.881-6.742-1.254-10.27.851-4.783 5.341-8.468 8.36-12.111"/><path d="M12.298 65.96c-2.097-2.77-5-4.898-6.22-8.267-1.655-4.567.39-10.004 1.183-14.669-2.04 3.244-4.382 6.468-5.885 10-2.903 6.821-1.006 13.06 3.758 18.351 4.226 4.695 8.224 8.6 8.22 15.352-.001 2.68-.3 5.376-.468 8.049 2.262-6.187 4.278-11.778 3.245-18.555-.541-3.558-1.633-7.354-3.833-10.26"/><path d="M18.056 95.27c-3.201-1.35-6.78-1.742-9.52-4.049-3.717-3.128-4.664-8.86-6.31-13.296-.145 3.83-.56 7.793-.097 11.602.897 7.36 5.659 11.814 12.43 14.014 6.008 1.953 11.423 3.337 14.795 9.185 1.339 2.322 2.43 4.806 3.62 7.205-1.135-6.489-2.185-12.34-6.467-17.692-2.249-2.81-5.092-5.552-8.45-6.969"/><path d="M48.5 119.584c-3.352-1.31-7.184-2.263-10.802-1.81-3.448.43-6.742 1.881-10.27 1.253-4.783-.85-8.468-5.34-12.111-8.36 1.789 3.39 3.41 7.03 5.717 10.097 4.456 5.925 10.807 7.401 17.771 5.922 6.18-1.313 11.561-2.822 17.406.557 2.32 1.34 4.506 2.947 6.736 4.43-4.227-5.053-8.06-9.595-14.446-12.089"/><path d="M76.22 123.608c-3.557.542-7.353 1.633-10.26 3.834-2.77 2.097-4.898 5-8.266 6.22-4.568 1.655-10.005-.391-14.67-1.184 3.244 2.04 6.469 4.383 10 5.885 6.821 2.904 13.06 1.007 18.35-3.757 4.696-4.226 8.602-8.224 15.353-8.22 2.68.001 5.376.299 8.049.468-6.187-2.262-11.778-4.278-18.555-3.246"/><path d="M95.27 121.683c-1.35 3.202-1.742 6.78-4.05 9.52-3.127 3.718-8.859 4.665-13.295 6.31 3.83.145 7.793.561 11.602.097 7.36-.896 11.814-5.658 14.015-12.43 1.952-6.007 3.336-11.422 9.185-14.795 2.32-1.338 4.805-2.429 7.204-3.618-6.489 1.134-12.34 2.184-17.692 6.466-2.81 2.249-5.552 5.091-6.969 8.45"/><path d="M119.584 91.239c-1.31 3.352-2.263 7.185-1.81 10.803.431 3.447 1.881 6.742 1.254 10.269-.852 4.783-5.341 8.469-8.36 12.112 3.388-1.79 7.029-3.41 10.096-5.717 5.925-4.456 7.401-10.807 5.922-17.771-1.313-6.18-2.822-11.561.557-17.406 1.34-2.32 2.947-4.506 4.43-6.736-5.053 4.227-9.595 8.06-12.089 14.446"/><path d="M126.386 53.013c.001-2.68.299-5.377.468-8.05-2.262 6.188-4.278 11.779-3.246 18.556.542 3.558 1.633 7.354 3.834 10.26 2.097 2.771 5 4.899 6.22 8.267 1.655 4.568-.391 10.005-1.184 14.67 2.04-3.244 4.383-6.469 5.885-10 2.904-6.821 1.007-13.06-3.757-18.352-4.226-4.694-8.224-8.6-8.22-15.351"/><path d="M125.18 36.198c-6.007-1.953-11.422-3.336-14.794-9.185-1.34-2.321-2.43-4.805-3.62-7.204 1.135 6.488 2.185 12.339 6.467 17.692 2.248 2.81 5.091 5.552 8.45 6.969 3.202 1.35 6.78 1.742 9.521 4.049 3.717 3.128 4.663 8.86 6.31 13.295.144-3.829.56-7.792.096-11.601-.896-7.36-5.658-11.814-12.43-14.015"/><path d="M100.934 13.054c-6.179 1.313-11.56 2.822-17.405-.557-2.32-1.341-4.506-2.947-6.736-4.43 4.227 5.053 8.06 9.594 14.446 12.089 3.353 1.31 7.185 2.262 10.802 1.81 3.449-.431 6.743-1.881 10.27-1.254 4.783.851 8.469 5.341 12.112 8.36-1.789-3.389-3.41-7.03-5.717-10.096-4.456-5.926-10.807-7.402-17.772-5.922"/></g></svg>