<?xml version="1.0" encoding="UTF-8"?>
<svg width="140px" height="140px" viewBox="0 0 140 140" version="1.1" xmlns="http://www.w3.org/2000/svg" xmlns:xlink="http://www.w3.org/1999/xlink">
    <!-- Generator: Sketch 41.2 (35397) - http://www.bohemiancoding.com/sketch -->
    <title>Page 1</title>
    <desc>Created with Sketch.</desc>
    <defs></defs>
    <g id="1.-Главная-страница" stroke="none" stroke-width="1" fill="none" fill-rule="evenodd">
        <g id="Главная-[Desktop-1600]" transform="translate(-264.000000, -2335.000000)" fill="#595959">
            <g id="Page-1" transform="translate(264.000000, 2335.000000)">
                <path d="M68.3645714,5.13349206 C63.6696508,9.35984127 59.763619,13.357619 53.0128254,13.354127 C50.3331429,13.3525397 47.6366349,13.0547619 44.9639365,12.885873 C51.1506032,15.1477778 56.7420317,17.1639683 63.5191746,16.1315873 C67.0772698,15.5893651 70.8728254,14.4985714 73.7791746,12.2979365 C76.5499683,10.2004762 78.6782222,7.29730159 82.0461587,6.07730159 C86.6140952,4.42269841 92.0509206,6.4684127 96.7150476,7.26142857 C93.4715556,5.22111111 90.2471111,2.87888889 86.7163175,1.37634921 C79.8944127,-1.52746032 73.6563175,0.37 68.3645714,5.13349206" id="Fill-1"></path>
                <path d="M50.2126032,2.1292381 C42.8526032,3.02574603 38.3992698,7.78765079 36.1983175,14.5590794 C34.245619,20.5666984 32.8614921,25.9819365 27.0132381,29.3543175 C24.6919683,30.6927302 22.2075238,31.7832063 19.8087937,32.9733651 C26.2976825,31.8387619 32.1478413,30.7892381 37.5008571,26.506381 C40.3113333,24.258127 43.0526032,21.4152698 44.469746,18.0562222 C45.8205397,14.8546349 46.2116508,11.2762222 48.5186349,8.53590476 C51.6472063,4.8187619 57.3786349,3.87209524 61.8141905,2.22669841 C57.9853016,2.08161905 54.0218095,1.66542857 50.2126032,2.1292381" id="Fill-3"></path>
                <path d="M29.071873,15.3168571 C25.683619,17.105746 22.0426667,18.7270159 18.976,21.0333651 C13.0502857,25.4895556 11.5744127,31.8403492 13.0537778,38.8051111 C14.3667937,44.9841587 15.8756825,50.3660635 12.4972698,56.2105079 C11.156,58.5305079 9.54965079,60.7168571 8.06711111,62.9470159 C13.1194921,58.7200317 17.6613968,54.8860635 20.1556825,48.5006667 C21.4655238,45.1482857 22.4182222,41.3155873 21.9658413,37.698127 C21.5347302,34.2501905 20.0845714,30.9555873 20.7121905,27.4286032 C21.5629841,22.6454286 26.0531429,18.9597143 29.071873,15.3168571" id="Fill-5"></path>
                <path d="M12.2980952,65.9603175 C10.2006349,63.1895238 7.29746032,61.0615873 6.07746032,57.6933333 C4.42285714,53.1257143 6.46857143,47.6888889 7.26126984,43.0244444 C5.22126984,46.2679365 2.87904762,49.492381 1.37619048,53.0231746 C-1.52730159,59.8450794 0.36984127,66.0831746 5.13365079,71.3752381 C9.36,76.0698413 13.3577778,79.975873 13.3539683,86.7269841 C13.3526984,89.4066667 13.0546032,92.1031746 12.8860317,94.775873 C15.1479365,88.5888889 17.164127,82.9977778 16.1314286,76.2206349 C15.5895238,72.6625397 14.4984127,68.8669841 12.2980952,65.9603175" id="Fill-7"></path>
                <path d="M18.0564127,95.2700635 C14.8548254,93.9192698 11.2764127,93.5278413 8.53577778,91.2211746 C4.81895238,88.0926032 3.87228571,82.3611746 2.22688889,77.9253016 C2.08149206,81.7541905 1.66530159,85.718 2.12942857,89.5272063 C3.02561905,96.8868889 7.78784127,101.34054 14.5592698,103.541492 C20.5665714,105.49419 25.982127,106.878 29.3541905,112.726254 C30.6929206,115.047841 31.7830794,117.532286 32.9732381,119.931333 C31.8389524,113.442127 30.7891111,107.591651 26.5065714,102.238952 C24.258,99.4284762 21.4154603,96.6868889 18.0564127,95.2700635" id="Fill-9"></path>
                <path d="M48.5006667,119.583968 C45.1482857,118.274444 41.3155873,117.321429 37.698127,117.77381 C34.2501905,118.204921 30.9555873,119.655079 27.4286032,119.02746 C22.6454286,118.176349 18.9597143,113.686508 15.3168571,110.667778 C17.105746,114.056349 18.7270159,117.696984 21.0336825,120.763968 C25.4895556,126.689365 31.8406667,128.165238 38.8051111,126.685556 C44.9841587,125.372857 50.3660635,123.863651 56.2108254,127.242698 C58.5305079,128.583651 60.7168571,130.19 62.9470159,131.67254 C58.7200317,126.619841 54.8860635,122.078254 48.5006667,119.583968" id="Fill-11"></path>
                <path d="M76.2206349,123.608032 C72.6625397,124.150254 68.8669841,125.241365 65.9603175,127.441683 C63.1898413,129.539143 61.0619048,132.442 57.6936508,133.662317 C53.1257143,135.316921 47.6888889,133.270889 43.0247619,132.47819 C46.2679365,134.518508 49.4926984,136.86073 53.0231746,138.36327 C59.8450794,141.267079 66.0831746,139.369619 71.3749206,134.606127 C76.0698413,130.379778 79.9761905,126.382 86.7273016,126.385492 C89.4066667,126.387079 92.1031746,126.684857 94.775873,126.854063 C88.5888889,124.591841 82.9977778,122.575651 76.2206349,123.608032" id="Fill-13"></path>
                <path d="M95.2700952,121.683111 C93.9193016,124.885016 93.527873,128.463111 91.2208889,131.203746 C88.0926349,134.920571 82.3612063,135.867556 77.9253333,137.512952 C81.7542222,137.658032 85.7180317,138.074222 89.5269206,137.610413 C96.8869206,136.714222 101.340571,131.952 103.541524,125.180571 C105.494222,119.172952 106.878032,113.757714 112.726603,110.385333 C115.047873,109.046603 117.532317,107.956444 119.931365,106.766603 C113.442159,107.900889 107.591683,108.95073 102.238984,113.23327 C99.4288254,115.481524 96.6869206,118.324381 95.2700952,121.683111" id="Fill-15"></path>
                <path d="M119.584032,91.2390159 C118.274508,94.5913968 117.321492,98.4240952 117.773873,102.041556 C118.204984,105.489492 119.655143,108.784095 119.027524,112.310762 C118.176413,117.094254 113.686571,120.779651 110.667841,124.422825 C114.056413,122.633937 117.697048,121.012667 120.764032,118.706317 C126.689429,114.250127 128.165302,107.899016 126.685619,100.934571 C125.372921,94.7555238 123.863714,89.373619 127.242762,83.5288571 C128.583714,81.2091746 130.190063,79.0228254 131.672603,76.7926667 C126.619905,81.0196508 122.078317,84.853619 119.584032,91.2390159" id="Fill-17"></path>
                <path d="M126.385556,53.0126349 C126.387143,50.3329524 126.684921,47.6364444 126.854127,44.963746 C124.591905,51.1507302 122.575714,56.7418413 123.608095,63.5189841 C124.150317,67.0770794 125.241429,70.8726349 127.441746,73.7793016 C129.539206,76.5500952 132.442063,78.6780317 133.662381,82.0462857 C135.316984,86.6139048 133.270952,92.0507302 132.478254,96.7151746 C134.518571,93.4716825 136.860794,90.2472381 138.363333,86.7164444 C141.267143,79.8945397 139.369683,73.6564444 134.60619,68.364381 C130.379841,63.6697778 126.382063,59.763746 126.385556,53.0126349" id="Fill-19"></path>
                <path d="M125.180508,36.1980952 C119.172889,34.2453968 113.757968,32.8615873 110.385587,27.0130159 C109.046857,24.691746 107.956381,22.207619 106.76654,19.8085714 C107.900825,26.2974603 108.950667,32.147619 113.233206,37.5009524 C115.48146,40.3111111 118.324317,43.0526984 121.683048,44.4695238 C124.884952,45.8203175 128.463365,46.211746 131.204,48.5187302 C134.920825,51.6473016 135.867492,57.3784127 137.513206,61.8142857 C137.658286,57.9853968 138.074159,54.0215873 137.610349,50.2126984 C136.714159,42.8526984 131.951937,38.3990476 125.180508,36.1980952" id="Fill-21"></path>
                <path d="M100.934476,13.053873 C94.7554286,14.3665714 89.3738413,15.8757778 83.5290794,12.4970476 C81.2090794,11.1557778 79.0227302,9.54974603 76.7925714,8.06720635 C81.019873,13.1195873 84.8538413,17.6611746 91.2392381,20.1557778 C94.591619,21.4653016 98.4243175,22.4183175 102.04146,21.9659365 C105.489714,21.5348254 108.784317,20.0846667 112.310984,20.7122857 C117.094159,21.5630794 120.779873,26.0532381 124.42273,29.0719683 C122.634159,25.6833968 121.012571,22.0427619 118.706222,18.9757778 C114.250032,13.0500635 107.898921,11.5741905 100.934476,13.053873" id="Fill-23"></path>
            </g>
        </g>
    </g>
</svg>