<?xml version="1.0" encoding="UTF-8"?>
<svg width="136px" height="130px" viewBox="0 0 136 130" version="1.1" xmlns="http://www.w3.org/2000/svg" xmlns:xlink="http://www.w3.org/1999/xlink">
    <!-- Generator: Sketch 41.2 (35397) - http://www.bohemiancoding.com/sketch -->
    <title>Group 9</title>
    <desc>Created with Sketch.</desc>
    <defs>
        <path d="M45.7815879,57.4943322 C51.5038337,48.040187 60.7754184,48.0302595 66.5036729,57.4943322 L82.5815879,84.0578439 C88.3038337,93.5119891 83.9914071,101.176088 72.9526088,101.176088 L39.332652,101.176088 C28.2924679,101.176088 23.9754184,93.5219167 29.7036729,84.0578439 L45.7815879,57.4943322 Z" id="path-1"></path>
        <mask id="mask-2" maskContentUnits="userSpaceOnUse" maskUnits="objectBoundingBox" x="0" y="0" width="57.9407944" height="50.7760881" fill="white">
            <use xlink:href="#path-1"></use>
        </mask>
    </defs>
    <g id="4.-Объект:-Выбор-квартиры" stroke="none" stroke-width="1" fill="none" fill-rule="evenodd">
        <g id="Объекты-[Desktop-1600]" transform="translate(-470.000000, -879.000000)">
            <g id="Group-9" transform="translate(470.000000, 879.000000)">
                <text id="МОРЕ" font-family="GothamPro-Bold, Gotham Pro" font-size="12" font-weight="bold" line-spacing="16" fill="#0062CD">
                    <tspan x="100" y="84.6">МОРЕ</tspan>
                </text>
                <text id="МОРЕ" font-family="GothamPro-Bold, Gotham Pro" font-size="12" font-weight="bold" line-spacing="16" fill="#0062CD">
                    <tspan x="46.4" y="33.4">МОРЕ</tspan>
                </text>
                <text id="горы" font-family="GothamPro-Bold, Gotham Pro" font-size="12" font-weight="bold" line-spacing="16" fill="#0062CD">
                    <tspan x="2.4" y="127.8">горы</tspan>
                </text>
                <use id="Triangle-2" stroke="#0062CD" mask="url(#mask-2)" stroke-width="6" transform="translate(56.141175, 75.788044) rotate(180.000000) translate(-56.141175, -75.788044) " xlink:href="#path-1"></use>
                <g id="noun_12145_cc" transform="translate(46.400000, 0.000000)" fill="#0062CD">
                    <g id="Group">
                        <g id="Shape">
                            <path d="M21.6707168,5.26769697 C19.5055842,5.26769697 18.2586297,4.02569697 17.1599525,2.92922424 C16.3059327,2.07752727 15.5671129,1.34208485 14.5422891,1.34208485 C13.5317228,1.34208485 12.8003168,2.07278788 11.9528554,2.91779394 C10.849901,4.01900606 9.5998099,5.26769697 7.41300594,5.26769697 C5.24787327,5.26769697 4.00148911,4.02569697 2.90195644,2.92922424 C2.04793663,2.07752727 1.30940198,1.34208485 0.284863366,1.34208485 L0.284863366,0.0306666667 C1.87228515,0.0306666667 2.88228119,1.0373697 3.85948515,2.01117576 C4.86292277,3.01118788 5.81104158,3.95655758 7.41300594,3.95655758 C9.03578614,3.95655758 9.98732673,3.00644848 10.9947564,2.00086061 C11.9645465,1.03207273 12.9679842,0.0306666667 14.5422891,0.0306666667 C16.1302812,0.0306666667 17.1399921,1.0373697 18.117196,2.01117576 C19.1206337,3.01118788 20.0690376,3.95655758 21.6707168,3.95655758 C23.293497,3.95655758 24.2458931,3.00644848 25.2530376,2.00086061 C26.2222574,1.03207273 27.225695,0.0306666667 28.8,0.0306666667 L28.8,1.34208485 C27.7885782,1.34208485 27.0580277,2.07278788 26.2102812,2.91779394 C25.107897,4.01900606 23.8583762,5.26769697 21.6707168,5.26769697 Z"></path>
                            <path d="M21.6707168,11.8186545 C19.5055842,11.8186545 18.2586297,10.5766545 17.1599525,9.48018182 C16.3059327,8.62848485 15.5671129,7.89304242 14.5422891,7.89304242 C13.5317228,7.89304242 12.8003168,8.62346667 11.9528554,9.46875152 C10.849901,10.5699636 9.5998099,11.8186545 7.41300594,11.8186545 C5.24787327,11.8186545 4.00148911,10.5766545 2.90195644,9.48018182 C2.04793663,8.62848485 1.30940198,7.89304242 0.284863366,7.89304242 L0.284863366,6.58162424 C1.87228515,6.58162424 2.88228119,7.58804848 3.85948515,8.56213333 C4.86292277,9.56214545 5.81104158,10.5075152 7.41300594,10.5075152 C9.03578614,10.5075152 9.98732673,9.55740606 10.9947564,8.55181818 C11.9645465,7.5830303 12.9679842,6.58162424 14.5422891,6.58162424 C16.1302812,6.58162424 17.1399921,7.58804848 18.117196,8.56213333 C19.1206337,9.56214545 20.0690376,10.5075152 21.6707168,10.5075152 C23.293497,10.5075152 24.2458931,9.55740606 25.2530376,8.55181818 C26.2222574,7.5830303 27.225695,6.58162424 28.8,6.58162424 L28.8,7.89304242 C27.7885782,7.89304242 27.0580277,8.62346667 26.2102812,9.46875152 C25.107897,10.5699636 23.8583762,11.8186545 21.6707168,11.8186545 Z"></path>
                            <path d="M21.6707168,18.3696121 C19.5055842,18.3696121 18.2586297,17.1276121 17.1599525,16.0311394 C16.3059327,15.1794424 15.5671129,14.444 14.5422891,14.444 C13.5317228,14.444 12.8003168,15.174703 11.9528554,16.0197091 C10.849901,17.1209212 9.5998099,18.3696121 7.41300594,18.3696121 C5.24787327,18.3696121 4.00148911,17.1276121 2.90195644,16.0311394 C2.04793663,15.1794424 1.30940198,14.444 0.284863366,14.444 L0.284863366,13.1325818 C1.87228515,13.1325818 2.88228119,14.1392848 3.85948515,15.1130909 C4.86292277,16.113103 5.81104158,17.0584727 7.41300594,17.0584727 C9.03578614,17.0584727 9.98732673,16.1083636 10.9947564,15.1027758 C11.9645465,14.1339879 12.9679842,13.1325818 14.5422891,13.1325818 C16.1302812,13.1325818 17.1399921,14.1392848 18.117196,15.1130909 C19.1206337,16.113103 20.0690376,17.0584727 21.6707168,17.0584727 C23.293497,17.0584727 24.2458931,16.1083636 25.2530376,15.1027758 C26.2222574,14.1339879 27.225695,13.1325818 28.8,13.1325818 L28.8,14.444 C27.7885782,14.444 27.0580277,15.174703 26.2102812,16.0197091 C25.107897,17.1209212 23.8583762,18.3696121 21.6707168,18.3696121 Z"></path>
                        </g>
                    </g>
                </g>
                <g id="noun_12145_cc" transform="translate(99.200000, 50.400000)" fill="#0062CD">
                    <g id="Group">
                        <g id="Shape">
                            <path d="M21.6707168,5.26769697 C19.5055842,5.26769697 18.2586297,4.02569697 17.1599525,2.92922424 C16.3059327,2.07752727 15.5671129,1.34208485 14.5422891,1.34208485 C13.5317228,1.34208485 12.8003168,2.07278788 11.9528554,2.91779394 C10.849901,4.01900606 9.5998099,5.26769697 7.41300594,5.26769697 C5.24787327,5.26769697 4.00148911,4.02569697 2.90195644,2.92922424 C2.04793663,2.07752727 1.30940198,1.34208485 0.284863366,1.34208485 L0.284863366,0.0306666667 C1.87228515,0.0306666667 2.88228119,1.0373697 3.85948515,2.01117576 C4.86292277,3.01118788 5.81104158,3.95655758 7.41300594,3.95655758 C9.03578614,3.95655758 9.98732673,3.00644848 10.9947564,2.00086061 C11.9645465,1.03207273 12.9679842,0.0306666667 14.5422891,0.0306666667 C16.1302812,0.0306666667 17.1399921,1.0373697 18.117196,2.01117576 C19.1206337,3.01118788 20.0690376,3.95655758 21.6707168,3.95655758 C23.293497,3.95655758 24.2458931,3.00644848 25.2530376,2.00086061 C26.2222574,1.03207273 27.225695,0.0306666667 28.8,0.0306666667 L28.8,1.34208485 C27.7885782,1.34208485 27.0580277,2.07278788 26.2102812,2.91779394 C25.107897,4.01900606 23.8583762,5.26769697 21.6707168,5.26769697 Z"></path>
                            <path d="M21.6707168,11.8186545 C19.5055842,11.8186545 18.2586297,10.5766545 17.1599525,9.48018182 C16.3059327,8.62848485 15.5671129,7.89304242 14.5422891,7.89304242 C13.5317228,7.89304242 12.8003168,8.62346667 11.9528554,9.46875152 C10.849901,10.5699636 9.5998099,11.8186545 7.41300594,11.8186545 C5.24787327,11.8186545 4.00148911,10.5766545 2.90195644,9.48018182 C2.04793663,8.62848485 1.30940198,7.89304242 0.284863366,7.89304242 L0.284863366,6.58162424 C1.87228515,6.58162424 2.88228119,7.58804848 3.85948515,8.56213333 C4.86292277,9.56214545 5.81104158,10.5075152 7.41300594,10.5075152 C9.03578614,10.5075152 9.98732673,9.55740606 10.9947564,8.55181818 C11.9645465,7.5830303 12.9679842,6.58162424 14.5422891,6.58162424 C16.1302812,6.58162424 17.1399921,7.58804848 18.117196,8.56213333 C19.1206337,9.56214545 20.0690376,10.5075152 21.6707168,10.5075152 C23.293497,10.5075152 24.2458931,9.55740606 25.2530376,8.55181818 C26.2222574,7.5830303 27.225695,6.58162424 28.8,6.58162424 L28.8,7.89304242 C27.7885782,7.89304242 27.0580277,8.62346667 26.2102812,9.46875152 C25.107897,10.5699636 23.8583762,11.8186545 21.6707168,11.8186545 Z"></path>
                            <path d="M21.6707168,18.3696121 C19.5055842,18.3696121 18.2586297,17.1276121 17.1599525,16.0311394 C16.3059327,15.1794424 15.5671129,14.444 14.5422891,14.444 C13.5317228,14.444 12.8003168,15.174703 11.9528554,16.0197091 C10.849901,17.1209212 9.5998099,18.3696121 7.41300594,18.3696121 C5.24787327,18.3696121 4.00148911,17.1276121 2.90195644,16.0311394 C2.04793663,15.1794424 1.30940198,14.444 0.284863366,14.444 L0.284863366,13.1325818 C1.87228515,13.1325818 2.88228119,14.1392848 3.85948515,15.1130909 C4.86292277,16.113103 5.81104158,17.0584727 7.41300594,17.0584727 C9.03578614,17.0584727 9.98732673,16.1083636 10.9947564,15.1027758 C11.9645465,14.1339879 12.9679842,13.1325818 14.5422891,13.1325818 C16.1302812,13.1325818 17.1399921,14.1392848 18.117196,15.1130909 C19.1206337,16.113103 20.0690376,17.0584727 21.6707168,17.0584727 C23.293497,17.0584727 24.2458931,16.1083636 25.2530376,15.1027758 C26.2222574,14.1339879 27.225695,13.1325818 28.8,13.1325818 L28.8,14.444 C27.7885782,14.444 27.0580277,15.174703 26.2102812,16.0197091 C25.107897,17.1209212 23.8583762,18.3696121 21.6707168,18.3696121 Z"></path>
                        </g>
                    </g>
                </g>
                <g id="noun_62193_cc" transform="translate(0.000000, 93.600000)" fill="#0062CD">
                    <g id="Group">
                        <path d="M22.1112532,0.127316274 L14.8299536,9.61897618 L13.1772512,6.58513324 L9.18720466,8.12921089 L6.77642402,4.04354394 L0,18.5369139 L34.4,18.5656 L22.1112532,0.127316274 Z M24.3774558,14.3036091 L22.1108707,10.8211154 L19.3891326,15.3389864 L16.4168692,13.1420129 L13.5065678,15.6388519 L11.9391588,12.903727 L9.33943228,14.2060763 L8.62304451,12.0634152 L6.14877195,14.9874859 L5.05411001,12.9775459 L1.86383215,16.5013476 L5.17688656,9.34664938 L6.87127942,5.64384637 L9.035742,9.64842725 L12.8945974,7.52642011 L14.6781085,12.4481915 L22.0362868,1.89973536 L27.8312634,10.5594981 L32.6600918,17.9739012 L25.7891949,11.2097166 L24.3774558,14.3036091 Z" id="Shape"></path>
                    </g>
                </g>
            </g>
        </g>
    </g>
</svg>