<?xml version="1.0" encoding="UTF-8"?>
<svg width="205px" height="205px" viewBox="0 0 205 205" version="1.1" xmlns="http://www.w3.org/2000/svg" xmlns:xlink="http://www.w3.org/1999/xlink">
    <!-- Generator: Sketch 41.2 (35397) - http://www.bohemiancoding.com/sketch -->
    <title>Page 1</title>
    <desc>Created with Sketch.</desc>
    <defs></defs>
    <g id="2.1.-Партнеры" stroke="none" stroke-width="1" fill="none" fill-rule="evenodd" opacity="0.398663949">
        <g id="Партнеры-[Desktop-1600]" transform="translate(-738.000000, -344.000000)" fill="#E2E2E2">
            <g id="Page-1" transform="translate(738.000000, 344.000000)">
                <path d="M100.105265,7.51689909 C93.2305601,13.7054819 87.5110136,19.5593707 77.6259229,19.5542574 C73.702102,19.5519331 69.753644,19.1159014 65.8400499,18.8685998 C74.8990975,22.1806746 83.0865465,25.1329535 93.01022,23.6212528 C98.220288,22.8272846 103.778066,21.230051 108.033791,18.0076927 C112.091025,14.9364116 115.207397,10.6853345 120.139018,8.8989059 C126.827782,6.4760941 134.788848,9.47160431 141.618463,10.6328061 C136.869063,7.64519841 132.147556,4.21551587 126.977465,2.01536848 C116.988247,-2.23663832 107.853893,0.541785714 100.105265,7.51689909" id="Fill-1"></path>
                <path d="M73.5255975,3.11781293 C62.7484546,4.43055669 56.2275023,11.4033458 53.0046791,21.3186519 C50.1453707,30.1155227 48.1186134,38.0449785 39.5550986,42.9831077 C36.1560964,44.9429263 32.5181599,46.539695 29.0057336,48.2824274 C38.5073209,46.6210442 47.0736247,45.0842415 54.9119694,38.812915 C59.0273095,35.5208288 63.0413118,31.3580737 65.1164138,26.4394683 C67.0943617,21.7514297 67.6670601,16.5116111 71.045144,12.4990034 C75.6262664,7.05604422 84.0187154,5.66985374 90.5136361,3.26052268 C84.9070488,3.04808503 79.1033639,2.43866327 73.5255975,3.11781293" id="Fill-3"></path>
                <path d="M42.5695283,22.4282551 C37.6081565,25.0476995 32.2767619,27.4217018 27.7862857,30.798856 C19.1093469,37.3239921 16.9482472,46.6233685 19.1144603,56.8217698 C21.0370907,65.869661 23.2465351,73.7503073 18.2995737,82.3082438 C16.3355714,85.7053866 13.9834172,88.9068265 11.8125556,92.1724161 C19.2106848,85.9829036 25.8613311,80.3688787 29.513678,71.0188333 C31.4316599,66.1099898 32.8266825,60.4978243 32.1642676,55.2008288 C31.5329977,50.1520646 29.409551,45.3278243 30.3285646,40.1633118 C31.5743696,33.1593776 38.1492449,27.7624388 42.5695283,22.4282551" id="Fill-5"></path>
                <path d="M18.0079252,96.5847506 C14.936644,92.527517 10.6855669,89.41161 8.89913832,84.4795238 C6.47632653,77.7912245 9.47183673,69.8301587 10.6325737,63.0000794 C7.64543084,67.7494785 4.2157483,72.4709864 2.01513605,77.6410771 C-2.2364059,87.6302948 0.541553288,96.7646485 7.51713152,104.513741 C13.7057143,111.387982 19.5596032,117.107528 19.5540249,126.993084 C19.5521655,130.916905 19.1156689,134.865363 18.8688322,138.778957 C22.180907,129.719444 25.1331859,121.53246 23.6210204,111.608787 C22.827517,106.398719 21.2298186,100.840941 18.0079252,96.5847506" id="Fill-7"></path>
                <path d="M26.4397472,139.502593 C21.7517086,137.524645 16.51189,136.951482 12.4988175,133.573863 C7.05632313,128.99274 5.67013265,120.600291 3.26080159,114.104906 C3.04789909,119.711493 2.43847732,125.515643 3.11809184,131.093409 C4.43037075,141.870087 11.4036247,148.391505 21.3189308,151.614328 C30.1153367,154.473636 38.0452574,156.499929 42.9829218,165.063443 C44.9432052,168.46291 46.5395091,172.100847 48.2822415,175.613738 C46.6213231,166.111686 45.0840556,157.544917 38.8131939,149.707037 C35.5206429,145.591697 31.3583526,141.57723 26.4397472,139.502593" id="Fill-9"></path>
                <path d="M71.0188333,175.105096 C66.1099898,173.187579 60.4978243,171.792092 55.2008288,172.454507 C50.1520646,173.085777 45.3278243,175.209223 40.1633118,174.29021 C33.1593776,173.04394 27.7624388,166.469529 22.4282551,162.049246 C25.0476995,167.011083 27.4217018,172.342012 30.7993209,176.832954 C37.3239921,185.509427 46.6238333,187.670527 56.8217698,185.503849 C65.869661,183.581684 73.7503073,181.371774 82.3087086,186.319666 C85.7053866,188.283203 88.9068265,190.635357 92.1724161,192.806219 C85.9829036,185.407625 80.3688787,178.757443 71.0188333,175.105096" id="Fill-11"></path>
                <path d="M111.608787,180.997475 C106.398719,181.791443 100.840941,183.389142 96.5847506,186.611035 C92.5279819,189.682316 89.4120748,193.932929 84.4799887,195.719822 C77.7912245,198.142634 69.8301587,195.146659 63.0005442,193.985922 C67.7494785,196.973529 72.4714512,200.403212 77.6410771,202.603359 C87.6302948,206.855366 96.7646485,204.076942 104.513277,197.101829 C111.387982,190.913246 117.107993,185.059357 126.993549,185.064471 C130.916905,185.066795 134.865363,185.502827 138.778957,185.750593 C129.719444,182.438053 121.53246,179.485774 111.608787,180.997475" id="Fill-13"></path>
                <path d="M139.502639,178.178841 C137.524692,182.867345 136.951528,188.106698 133.573444,192.119771 C128.992787,197.562265 120.600338,198.948921 114.104952,201.358252 C119.71154,201.570689 125.515689,202.180111 131.092991,201.500961 C141.870134,200.188683 148.391551,193.215429 151.614374,183.300122 C154.473683,174.503252 156.499975,166.573796 165.063955,161.635667 C168.462957,159.675383 172.100893,158.079079 175.613785,156.336812 C166.111732,157.99773 157.544964,159.534998 149.707084,165.805859 C145.592209,169.097946 141.577277,173.260701 139.502639,178.178841" id="Fill-15"></path>
                <path d="M175.105189,133.599988 C173.187672,138.508831 171.792185,144.120997 172.4546,149.417992 C173.08587,154.466756 175.209316,159.290997 174.290303,164.455044 C173.044033,171.459443 166.469622,176.855917 162.049339,182.190566 C167.011176,179.571121 172.342105,177.197119 176.833046,173.819965 C185.50952,167.294829 187.67062,157.994988 185.503942,147.797051 C183.581777,138.74916 181.371867,130.868514 186.319759,122.310112 C188.283296,118.913434 190.63545,115.711994 192.806312,112.446405 C185.407718,118.635917 178.757536,124.249942 175.105189,133.599988" id="Fill-17"></path>
                <path d="M185.064563,77.625644 C185.066888,73.7018231 185.50292,69.7533651 185.750686,65.839771 C182.438146,74.8992834 179.485867,83.0862676 180.997568,93.009941 C181.791536,98.2200091 183.389235,103.777787 186.611128,108.033977 C189.682409,112.091211 193.933022,115.207118 195.719915,120.139204 C198.142727,126.827503 195.146752,134.788569 193.986015,141.618649 C196.973622,136.869249 200.403305,132.147741 202.603452,126.977651 C206.855459,116.988433 204.077035,107.854079 197.101922,100.104986 C190.913339,93.230746 185.05945,87.5111995 185.064563,77.625644" id="Fill-19"></path>
                <path d="M183.300029,53.0043537 C174.503159,50.1450454 166.574168,48.1187528 161.636039,39.5547732 C159.675755,36.155771 158.078986,32.5182993 156.336719,29.0054082 C157.997637,38.5069955 159.534905,47.0732993 165.805766,54.9121088 C169.097853,59.0269841 173.260608,63.0414512 178.178748,65.1160884 C182.867252,67.0940363 188.10707,67.6671995 192.120143,71.0452834 C197.562637,75.6264059 198.948828,84.01839 201.358624,90.5137755 C201.571061,84.9071882 202.180018,79.1030385 201.500868,73.525737 C200.18859,62.7485941 193.215336,56.2271769 183.300029,53.0043537" id="Fill-21"></path>
                <path d="M147.796912,19.1145998 C138.74902,21.0367653 130.868839,23.2466746 122.310438,18.2992483 C118.913295,16.335246 115.711855,13.9835567 112.446265,11.812695 C118.636243,19.2108243 124.250268,25.8610057 133.600313,29.5138175 C138.509156,31.4313345 144.121322,32.826822 149.417853,32.164407 C154.467082,31.5331372 159.291322,29.4096905 164.45537,30.3287041 C171.459304,31.5745091 176.856243,38.1493844 182.190426,42.5696678 C179.571447,37.6078311 177.19698,32.2769014 173.819825,27.7859603 C167.294689,19.1090215 157.994848,16.9479218 147.796912,19.1145998" id="Fill-23"></path>
            </g>
        </g>
    </g>
</svg>