<?xml version="1.0" encoding="UTF-8"?>
<svg width="34px" height="30px" viewBox="0 0 34 30" version="1.1" xmlns="http://www.w3.org/2000/svg" xmlns:xlink="http://www.w3.org/1999/xlink">
    <!-- Generator: Sketch 41.2 (35397) - http://www.bohemiancoding.com/sketch -->
    <title>Page 1</title>
    <desc>Created with Sketch.</desc>
    <defs></defs>
    <g id="Symbols" stroke="none" stroke-width="1" fill="none" fill-rule="evenodd">
        <g id="Menu_Object_960" transform="translate(-29.000000, -413.000000)" stroke-width="2" stroke="#9C765A">
            <g id="Group-8">
                <g id="Page-1" transform="translate(30.000000, 414.652174)">
                    <path d="M0,23.6678261 C0,21.8758261 1.39130435,20.1742609 3.47826087,20.1742609 L3.47826087,0.000347826087 C1.39130435,0.000347826087 0,1.68591304 0,3.4786087 L0,23.6678261 Z" id="Stroke-1" stroke-linejoin="round"></path>
                    <path d="M3.47826087,4.17391304 L32,4.17391304 L32,27.1304348 L3.49356522,27.1304348 C1.56452174,27.1304348 0,25.5332174 0,23.6521739" id="Stroke-3" stroke-linejoin="round"></path>
                    <polyline id="Stroke-5" points="16 13.2173913 16 18.7826087 8.34782609 18.7826087 8.34782609 8.34782609 16 8.34782609 16 11.1304348"></polyline>
                    <polyline id="Stroke-7" points="16 8.34782609 27.1304348 8.34782609 27.1304348 15.3043478 24.3478261 15.3043478"></polyline>
                    <polyline id="Stroke-9" points="21.5652174 15.3043478 24.3478261 15.3043478 24.3478261 22.9565217 13.2173913 22.9565217 13.2173913 18.7826087"></polyline>
                    <path d="M19.4782609,15.3043478 L16,15.3043478" id="Stroke-11"></path>
                </g>
            </g>
        </g>
    </g>
</svg>